<svg width="98" height="129" viewBox="0 0 98 129" fill="none" xmlns="http://www.w3.org/2000/svg">
<g clip-path="url(#clip0)">
<path d="M63.6205 106.967C55.8582 109.342 47.5802 109.461 39.7533 107.307C34.9117 105.605 37.3326 104.206 36.9922 98.6832C36.8286 97.0592 36.1664 95.5257 35.0963 94.2932C34.0263 93.0606 32.6008 92.1892 31.0158 91.7991C21.0058 87.7559 12.7069 80.3679 7.53232 70.893C2.35779 61.4181 0.627654 50.4423 2.63666 39.8351C4.64567 29.2279 10.2695 19.645 18.5504 12.7185C26.8314 5.79209 37.2574 1.9504 48.0528 1.84769C58.8481 1.74499 69.3452 5.38759 77.7564 12.1552C86.1676 18.9229 91.9727 28.397 94.1832 38.9641C96.3936 49.5312 94.8727 60.5378 89.8794 70.1094C84.8861 79.6811 76.7292 87.2259 66.7978 91.4589C65.4568 92.2179 64.4351 93.4357 63.9208 94.8883C63.4065 96.3409 63.4342 97.9303 63.9989 99.364" stroke="white" stroke-width="3.78244" stroke-miterlimit="10"/>
<path d="M34.5718 114.229C39.0361 117.131 44.193 118.789 49.5116 119.035C54.8301 119.281 60.1182 118.106 64.8313 115.629" stroke="white" stroke-width="3.78244" stroke-miterlimit="10"/>
<path d="M34.5718 122.211C39.0425 125.098 44.2004 126.746 49.5173 126.986C54.8343 127.225 60.1193 126.047 64.8313 123.572" stroke="white" stroke-width="3.78244" stroke-miterlimit="10"/>
<path d="M49.4365 22.3914C55.1247 22.399 60.6519 24.2811 65.1628 27.7463C69.6737 31.2115 72.9167 36.0666 74.3903 41.5606C75.864 47.0546 75.486 52.8813 73.3148 58.1388C71.1435 63.3963 67.3004 67.7918 62.3795 70.645C57.4587 73.4983 51.7346 74.6503 46.0931 73.9228C40.4516 73.1954 35.2072 70.6289 31.1711 66.6207C27.1351 62.6124 24.5322 57.3858 23.7658 51.7494C22.9993 46.1131 24.1117 40.3813 26.9309 35.4409C26.9309 35.4409 40.1694 17.4742 42.0607 32.7553C43.9519 48.0363 31.8861 51.1758 38.9214 51.8944C45.9567 52.6131 48.7556 45.6912 49.3986 48.3011C50.0416 50.9109 52.4246 55.5634 43.5359 60.6319C41.8739 61.6852 39.9762 62.3092 38.0134 62.4476" stroke="white" stroke-width="3.78244" stroke-miterlimit="10"/>
<path d="M53.2567 41.1529C54.1363 43.5575 55.332 45.8343 56.8122 47.9234C58.2117 49.2095 61.2 50.4198 62.1078 47.9234C62.5065 47.002 63.1379 46.2 63.9403 45.5966C64.7428 44.9931 65.6885 44.6089 66.6844 44.4815C67.4409 44.4815 65.6631 32.4533 59.1195 33.1342C52.5758 33.815 51.7438 37.6353 53.2567 41.1529Z" stroke="white" stroke-width="3.78244" stroke-miterlimit="10"/>
<path d="M65.4743 58.438C64.8817 60.2227 63.8936 61.8505 62.5837 63.1998C61.2737 64.549 59.6758 65.5848 57.9094 66.2298C55.6021 66.2298 54.127 63.0525 54.127 60.7074C54.127 59.5939 54.5694 58.5259 55.3568 57.7385C56.1441 56.9511 57.2121 56.5089 58.3256 56.5089C60.5573 56.5089 65.4743 55.9794 65.4743 58.438Z" stroke="white" stroke-width="3.78244" stroke-miterlimit="10"/>
</g>
<defs>
<clipPath id="clip0">
<rect width="97.0575" height="128.83" fill="white"/>
</clipPath>
</defs>
</svg>
