<svg width="178" height="145" viewBox="0 0 178 145" fill="none" xmlns="http://www.w3.org/2000/svg">
<g clip-path="url(#clip0)">
<path d="M5.82735 57.5068C3.08424 53.4714 1.62365 48.7016 1.63681 43.8221C1.63681 40.6062 2.27017 37.422 3.50084 34.4509C4.7315 31.4798 6.53531 28.7802 8.80928 26.5062C11.0832 24.2323 13.7829 22.4285 16.754 21.1978C19.725 19.9671 22.9094 19.3337 26.1252 19.3337" stroke="white" stroke-width="3.27386" stroke-miterlimit="10"/>
<path d="M36.3399 65.9862C33.1374 67.4618 29.6516 68.2215 26.1255 68.2124" stroke="white" stroke-width="3.27386" stroke-miterlimit="10"/>
<path d="M82.9271 53.448C82.9271 54.0046 82.9271 54.5611 82.9271 55.1177C82.6524 59.4786 81.2096 63.6852 78.7501 67.2968C76.2905 70.9083 72.9049 73.7918 68.9478 75.6449" stroke="white" stroke-width="3.27386" stroke-miterlimit="10"/>
<path d="M75.8555 36.2931C80.3837 40.8544 82.9256 47.0207 82.927 53.4481" stroke="white" stroke-width="3.27386" stroke-linecap="round" stroke-linejoin="round" stroke-dasharray="1.96 3.9 1.96 3.9 1.96 3.9"/>
<path d="M64.3643 5.81314C68.1061 8.20717 71.1857 11.5039 73.3196 15.3999C75.4536 19.2959 76.5733 23.666 76.5758 28.1082C76.6211 32.6085 75.4927 37.043 73.3019 40.9744" stroke="white" stroke-width="3.27386" stroke-miterlimit="10"/>
<path d="M51.9233 1.78633C53.1492 1.74388 54.3744 1.88739 55.5573 2.21194C58.7198 2.86098 61.7375 4.08128 64.4622 5.81311" stroke="white" stroke-width="3.27386" stroke-linecap="round" stroke-linejoin="round" stroke-dasharray="1.96 3.9 1.96 3.9 1.96 3.9"/>
<path d="M23.7026 28.1078C23.7026 27.0929 23.7026 26.0781 23.8663 25.0959C24.2959 21.363 25.5168 17.7646 27.4476 14.541C29.3784 11.3174 31.9746 8.54262 35.0629 6.4021" stroke="white" stroke-width="3.27386" stroke-miterlimit="10"/>
<path d="M35.063 6.40251C39.4789 3.32017 44.7376 1.67397 50.1228 1.68814" stroke="white" stroke-width="3.27386" stroke-linecap="round" stroke-linejoin="round" stroke-dasharray="1.96 3.9 1.96 3.9 1.96 3.9"/>
<path d="M31.0361 28.9592C31.5927 23.7865 30.3159 17.2387 42.4947 10.691" stroke="white" stroke-width="3.27386" stroke-linecap="round" stroke-linejoin="round" stroke-dasharray="1.96 3.9 1.96 3.9 1.96 3.9"/>
<path d="M7.46436 45.3941C8.02091 40.2214 6.77684 33.6736 18.9229 27.1259" stroke="white" stroke-width="3.27386" stroke-linecap="round" stroke-linejoin="round" stroke-dasharray="1.96 3.9 1.96 3.9 1.96 3.9"/>
<path d="M31.8875 57.4086C31.8875 57.4086 14.4705 54.7896 6.05664 61.1081C6.05664 61.1081 16.9586 74.2035 36.5691 65.9534C36.5691 65.9534 36.1107 78.2632 60.37 81.4061C60.37 81.4061 51.0395 62.745 42.1674 60.0605C42.1674 60.0605 55.2629 62.9414 68.8167 49.5185C68.8167 49.5185 51.1377 45.8191 38.9917 54.2657C38.9917 54.2657 36.6346 37.3727 24.7505 35.8012C24.7505 35.8012 22.1314 48.9621 31.8875 57.4086Z" stroke="white" stroke-width="3.27386" stroke-miterlimit="10"/>
<path d="M37.4205 61.6327C37.4205 61.6327 36.8966 81.6688 23.9648 84.8444" stroke="white" stroke-width="3.27386" stroke-miterlimit="10"/>
<path d="M96.0224 124.687C91.0234 122.017 86.9491 117.897 84.3346 112.868C80.8312 106.196 80.122 98.4046 82.363 91.2089C84.604 84.0132 89.6115 78.0023 96.2842 74.4987" stroke="white" stroke-width="3.27386" stroke-miterlimit="10"/>
<path d="M132.002 117.026C129.499 120.262 126.328 122.919 122.705 124.818" stroke="white" stroke-width="3.27386" stroke-miterlimit="10"/>
<path d="M173.056 78.8858C173.351 79.4751 173.646 80.0643 173.908 80.6536C175.968 85.2807 176.75 90.3752 176.175 95.4072C175.599 100.439 173.686 105.225 170.634 109.267" stroke="white" stroke-width="3.27386" stroke-miterlimit="10"/>
<path d="M156.687 65.1024C163.745 67.3632 169.627 72.3158 173.056 78.8854" stroke="white" stroke-width="3.27386" stroke-linecap="round" stroke-linejoin="round" stroke-dasharray="2.26 4.52 2.26 4.52 2.26 4.52"/>
<path d="M128.303 39.959C136.097 40.6242 143.342 44.2417 148.557 50.0715C153.772 55.9014 156.563 63.5032 156.36 71.3227" stroke="white" stroke-width="3.27386" stroke-miterlimit="10"/>
<path d="M113.21 42.5786C114.465 41.8859 115.809 41.3683 117.205 41.04C120.809 40.0163 124.569 39.6503 128.303 39.9596" stroke="white" stroke-width="3.27386" stroke-linecap="round" stroke-linejoin="round" stroke-dasharray="2.26 4.52 2.26 4.52 2.26 4.52"/>
<path d="M98.5431 84.7781C97.984 83.7233 97.5026 82.6291 97.1026 81.5042C95.5163 77.437 94.8183 73.0775 95.0555 68.7183C95.2926 64.3591 96.4595 60.1012 98.4777 56.2301" stroke="white" stroke-width="3.27386" stroke-miterlimit="10"/>
<path d="M98.478 56.3613C101.388 50.7499 105.962 46.1758 111.573 43.2658" stroke="white" stroke-width="3.27386" stroke-linecap="round" stroke-linejoin="round" stroke-dasharray="2.26 4.52 2.26 4.52 2.26 4.52"/>
<path d="M106.532 81.7342C104.306 76.1031 99.4602 70.0792 108.431 56.7546" stroke="white" stroke-width="3.27386" stroke-linecap="round" stroke-linejoin="round" stroke-dasharray="2.26 4.52 2.26 4.52 2.26 4.52"/>
<path d="M91.2101 111.329C88.9839 105.698 84.1713 99.6414 93.1089 86.3495" stroke="white" stroke-width="3.27386" stroke-linecap="round" stroke-linejoin="round" stroke-dasharray="2.26 4.52 2.26 4.52 2.26 4.52"/>
<path d="M122.737 110.511C122.737 110.511 103.454 117.058 98.1831 128.255C98.1831 128.255 116.484 135.85 132.166 116.764C132.166 116.764 138.321 129.63 164.904 119.808C164.904 119.808 145.261 105.665 134.687 107.662C134.687 107.662 149.779 103.537 156.36 82.4537C156.36 82.4537 136.193 88.1829 128.303 103.406C128.303 103.406 116.746 87.3644 103.683 92.1115C103.749 92.177 108.168 107.106 122.737 110.511Z" stroke="white" stroke-width="3.27386" stroke-miterlimit="10"/>
<path d="M130.726 111.82C130.726 111.82 140.973 132.707 129.416 142.922" stroke="white" stroke-width="3.27386" stroke-miterlimit="10"/>
</g>
<defs>
<clipPath id="clip0">
<rect width="178" height="144.148" fill="white" transform="translate(0 0.0507812)"/>
</clipPath>
</defs>
</svg>
