<svg width="147" height="155" viewBox="0 0 147 155" fill="none" xmlns="http://www.w3.org/2000/svg">
<path d="M80.2464 38.3625C60.8057 24.4561 66.9075 2 66.9075 2C88.4767 4.87353 92.1662 39.8882 92.1662 39.8882C98.738 33.389 106.882 28.7045 115.805 26.2921C124.727 23.8796 134.122 23.8217 143.074 26.1236C124.697 46.8414 110.614 50.9564 98.5518 46.1317C96.1741 44.8326 93.8867 43.3749 91.705 41.7683" stroke="white" stroke-width="3.5" stroke-miterlimit="10"/>
<path d="M82.8496 71.5615L80.5792 67.3043C79.4823 65.2871 77.6345 63.7836 75.4364 63.1195C73.2384 62.4555 70.8672 62.6844 68.8368 63.7568L48.9704 74.3995C46.9532 75.4964 45.4496 77.3443 44.7855 79.5424C44.1215 81.7404 44.3505 84.1115 45.4229 86.1419L47.7288 90.3635L48.9349 92.634L68.7658 129.6L74.7612 140.774L80.8985 152.233L116.055 133.36L109.918 121.937" stroke="white" stroke-width="3.5" stroke-miterlimit="10"/>
<path d="M109.882 121.936L82.8496 71.561" stroke="white" stroke-width="3.5" stroke-linecap="round" stroke-linejoin="round" stroke-dasharray="3.55 7.1 3.55 7.1 3.55 7.1"/>
<path d="M46.4867 75.641L42.2651 67.7654L66.9917 54.4976L71.2133 62.3731" stroke="white" stroke-width="3.5" stroke-miterlimit="10"/>
<path d="M50.354 63.4724L38.2568 34.4888L41.698 32.644L59.152 58.7541" stroke="white" stroke-width="3.5" stroke-miterlimit="10"/>
<path d="M34.6736 21.5908C34.6736 21.5908 27.1173 10.5935 33.0772 6.83304C39.0371 3.07262 43.4361 14.9923 34.6736 21.5908Z" stroke="white" stroke-width="3.5" stroke-miterlimit="10"/>
<path d="M27.516 29.48C27.516 29.48 17.2281 32.3891 15.9155 26.8904C14.6029 21.3916 24.7844 21.1432 27.516 29.48Z" stroke="white" stroke-width="3.5" stroke-miterlimit="10"/>
<path d="M92.4854 39.71C92.4854 39.71 74.7476 48.0113 81.8427 73.0216C81.8427 73.0216 85.3903 75.576 85.071 74.2634C83.2618 67.9133 82.6941 48.0113 93.5141 42.619L92.4854 39.71Z" fill="white"/>
<path d="M32.0119 132.75C20.7062 148.684 2.33212 143.767 2.33212 143.767C4.61321 126.128 33.2215 123.003 33.2215 123.003C27.8887 117.651 25.8164 114.754 23.8165 107.469C21.8167 100.184 24.8241 98.2977 26.6775 90.9739C35.829 98.3744 42.2105 107.89 38.3048 117.764C37.2504 119.711 36.0661 121.585 34.7597 123.374" stroke="white" stroke-width="3.5" stroke-miterlimit="10"/>
<path d="M34.2026 124.713C34.2026 124.713 45.2659 137.962 64.9841 126.291C64.9841 126.291 66.3632 122.694 65.3164 123.261C60.3117 126.231 43.4789 131.19 36.4504 123.182L34.2026 124.713Z" fill="white"/>
<path d="M56.4556 88.3057L84.233 139.852L105.022 128.677" stroke="white" stroke-width="3.5" stroke-miterlimit="10"/>
</svg>
