<svg width="137" height="165" viewBox="0 0 137 165" fill="none" xmlns="http://www.w3.org/2000/svg">
<g clip-path="url(#clip0)">
<path d="M53.2489 49.4521C53.2489 49.4521 51.6525 11.2449 82.5518 2.37604C82.5518 2.37604 81.9132 26.6767 75.2438 34.7651C72.8669 37.6741 63.9979 46.2594 60.4858 46.2594C60.4858 46.2594 64.7785 24.9739 73.2927 19.3333" stroke="white" stroke-width="3.54756" stroke-miterlimit="10"/>
<path d="M43.3511 37.1784C24.6199 22.456 2.19922 31.4314 2.19922 31.4314C8.37198 50.4463 30.8637 60.4148 45.1249 54.5614C47.9454 53.0444 50.6595 51.3376 53.2487 49.4529" stroke="white" stroke-width="3.54756" stroke-miterlimit="10"/>
<path d="M54.5613 49.2393C54.5613 49.2393 74.9598 65.6645 54.1711 107.277C54.1711 107.277 50.6235 110.612 50.6235 105.823C50.6235 104.227 70.2769 71.4117 51.1911 50.4456L54.5613 49.2393Z" fill="white"/>
<path d="M109.549 121.787L39.9456 158.788C39.9456 158.788 29.303 131.543 25.1168 122.781C19.6696 112.67 13.1775 103.158 5.74707 94.4003L75.3503 57.399L109.549 121.787Z" stroke="white" stroke-width="3.54756" stroke-miterlimit="10"/>
<path d="M91.5981 70.8802L100.68 66.0201L134.169 129.06L71.1641 162.549L65.9492 152.864" stroke="white" stroke-width="3.54756" stroke-miterlimit="10"/>
<path d="M45.0894 144.634C45.0894 144.634 37.2492 115.189 20.2563 95.8194" stroke="white" stroke-width="3.54756" stroke-linecap="round" stroke-linejoin="round" stroke-dasharray="3.55 7.1 3.55 7.1 3.55 7.1"/>
<path d="M93.3008 119.943C93.3008 119.943 70.2417 130.408 46.8633 144.35" stroke="white" stroke-width="3.54756" stroke-linecap="round" stroke-linejoin="round" stroke-dasharray="3.55 7.1 3.55 7.1 3.55 7.1"/>
<path d="M119.908 127.357C105.224 134.095 90.9184 141.627 77.0532 149.919" stroke="white" stroke-width="3.54756" stroke-linecap="round" stroke-linejoin="round" stroke-dasharray="3.55 7.1 3.55 7.1 3.55 7.1"/>
<path d="M44.9829 96.139C44.9829 96.139 46.2957 117.424 68.8582 103.944" stroke="white" stroke-width="3.54756" stroke-miterlimit="10"/>
</g>
<defs>
<clipPath id="clip0">
<rect width="136.581" height="164.926" fill="white"/>
</clipPath>
</defs>
</svg>
