<svg width="136" height="124" viewBox="0 0 136 124" fill="none" xmlns="http://www.w3.org/2000/svg">
<g clip-path="url(#clip0)">
<path d="M77.8691 45.3025C82.1923 43.0484 86.0549 40.004 89.2568 36.3271C95.8908 28.2387 98.3031 2.02222 98.3031 2.02222C68.6809 7.76927 69.0001 49.0985 69.0001 49.0985" stroke="white" stroke-width="3.54756" stroke-miterlimit="10"/>
<path d="M60.6635 38.2066C41.6131 21.7459 18.0928 31.1114 18.0928 31.1114C24.2655 50.1264 46.757 60.1306 61.0182 54.2416C63.8437 52.7333 66.5586 51.0261 69.1423 49.1331" stroke="white" stroke-width="3.54756" stroke-miterlimit="10"/>
<path d="M67.652 46.7921C67.652 46.7921 87.8731 62.5788 69.1774 94.5069C69.1774 94.5069 66.2329 97.1675 66.2329 93.3361C66.2329 92.0945 81.7712 66.1264 66.6586 49.5238L67.652 46.7921Z" fill="white"/>
<path d="M43.3868 121.433C43.8172 117.903 43.5333 114.321 42.5521 110.902C41.5709 107.484 39.9125 104.297 37.6753 101.531C35.4758 98.5869 20.9661 99.3675 13.6227 92.7335C6.27921 86.0996 1.77393 65.0981 1.77393 65.0981C1.77393 65.0981 2.87367 52.575 5.32149 51.8655C7.76931 51.156 10.4655 55.9098 8.86905 63.2533C8.12406 66.8008 13.055 76.3792 18.2345 81.3458C23.4139 86.3123 26.323 85.8157 26.323 85.8157C24.6399 85.661 23.0161 85.1153 21.5811 84.2223C20.146 83.3293 18.9393 82.1134 18.0571 80.6717C14.8998 76.592 12.8777 71.4837 16.106 69.0713C20.0438 66.0914 21.2145 72.2641 24.7266 74.9957C26.5713 76.4502 28.6288 76.4501 37.3204 77.1597C39.1832 77.383 40.9833 77.9737 42.6164 78.8973C44.2495 79.8209 45.6833 81.0592 46.8347 82.5405C47.9861 84.0219 48.8323 85.7168 49.3244 87.5274C49.8164 89.3379 49.9445 91.2278 49.7013 93.0882C48.9918 98.9771 59.6345 117.921 59.2798 122.533" stroke="white" stroke-width="3.54756" stroke-miterlimit="10"/>
<path d="M92.024 122.391C91.5907 118.863 91.8696 115.283 92.8446 111.865C93.8196 108.446 95.4707 105.258 97.7 102.489C99.9349 99.5447 114.409 100.325 121.788 93.6913C129.167 87.0574 133.601 66.0557 133.601 66.0557C133.601 66.0557 132.502 53.5328 130.054 52.8233C127.606 52.1138 124.91 56.8676 126.506 64.2111C127.216 67.7587 121.859 76.9113 117.105 82.3036C115.042 84.7273 112.167 86.3164 109.017 86.7735C110.705 86.6187 112.333 86.0733 113.774 85.1806C115.215 84.2878 116.428 83.0721 117.318 81.6295C120.44 77.5498 122.462 72.4413 119.269 70.0289C115.296 67.049 114.161 73.2219 110.613 75.9535C108.768 77.3725 106.711 77.408 98.0193 78.1175C96.1565 78.3409 94.3564 78.9315 92.7233 79.8551C91.0902 80.7787 89.6564 82.017 88.505 83.4984C87.3536 84.9797 86.5074 86.6745 86.0154 88.485C85.5233 90.2955 85.395 92.1856 85.6382 94.046C86.3832 99.935 75.7052 118.879 76.0599 123.491" stroke="white" stroke-width="3.54756" stroke-miterlimit="10"/>
<path d="M36.4688 38.7035C36.4688 38.7035 41.861 51.12 60.805 45.7986" stroke="white" stroke-width="3.54756" stroke-miterlimit="10"/>
</g>
<defs>
<clipPath id="clip0">
<rect width="135.41" height="123.633" fill="white"/>
</clipPath>
</defs>
</svg>
