<svg width="109" height="133" viewBox="0 0 109 133" fill="none" xmlns="http://www.w3.org/2000/svg">
<g clip-path="url(#clip0)">
<path d="M102.063 56.4413C93.3624 53.8059 84.4982 51.7439 75.5275 50.2686C68.4324 49.5236 46.8987 48.6013 46.8987 48.6013L27.6709 58.2861L9.08173 68.5386C9.08173 68.5386 4.50537 70.7379 4.64728 71.4829C12.4498 76.4933 21.071 80.0955 30.1188 82.1256C39.0941 83.1189 66.1264 84.1122 66.1264 84.1122" stroke="white" stroke-width="3.54756" stroke-miterlimit="10"/>
<path d="M1.77393 79.1811V117.424L65.5236 130.479L106.995 104.936L106.64 60.9821L66.1622 84.1477" stroke="white" stroke-width="3.54756" stroke-miterlimit="10"/>
<path d="M65.0977 84.1834V128.954" stroke="white" stroke-width="3.54756" stroke-miterlimit="10"/>
<path d="M23.4849 60.5925C23.4849 60.5925 51.5815 61.4795 59.8119 62.7566C67.3327 63.9273 89.6113 69.0357 89.6113 69.0357V115.544" stroke="white" stroke-width="3.54756" stroke-miterlimit="10"/>
<path d="M60.5213 62.7204C60.5213 62.7204 74.9954 42.2155 64.7429 28.38C64.7429 28.38 75.3856 6.84615 53.0005 4.04358C53.0005 4.04358 44.8055 16.602 58.641 28.8765" stroke="white" stroke-width="3.54756" stroke-miterlimit="10"/>
<path d="M64.8848 28.3802C95.784 37.9586 101.531 6.03058 101.531 6.03058C101.531 6.03058 97.9836 10.0037 86.9152 8.5137C76.7692 7.2011 72.9378 23.52 72.9378 23.52C80.0877 22.8993 86.8274 19.9162 92.0945 15.0413" stroke="white" stroke-width="3.54756" stroke-miterlimit="10"/>
</g>
<defs>
<clipPath id="clip0">
<rect width="108.768" height="132.36" fill="white"/>
</clipPath>
</defs>
</svg>
