<svg width="18" height="15" viewBox="0 0 18 15" fill="none" xmlns="http://www.w3.org/2000/svg">
<g clip-path="url(#clip0)">
<path opacity="0.5" d="M2.67986 0.95073C3.28358 0.793192 3.90706 0.724392 4.5306 0.746453C6.03405 0.879136 7.50053 1.28646 8.85701 1.9482V13.9657C7.62512 13.2613 6.24746 12.8501 4.83104 12.7639C3.92559 12.7993 3.03052 12.9694 2.17522 13.2687C1.57837 13.4696 0.992733 13.7023 0.420715 13.9657V1.9482" stroke="black" stroke-width="0.829206" stroke-miterlimit="10"/>
<path opacity="0.5" d="M11.573 12.9443C12.0558 12.8191 12.5523 12.7545 13.0511 12.752C14.5822 12.8807 16.0767 13.288 17.4614 13.9538V1.93628C16.2351 1.13991 14.8017 0.721967 13.3395 0.734528C12.4884 0.780804 11.6474 0.942509 10.8398 1.21522C10.2148 1.41263 9.60441 1.65358 9.01311 1.93628" stroke="black" stroke-width="0.829206" stroke-miterlimit="10"/>
<path opacity="0.5" d="M11.693 5.09668C12.6593 4.8221 13.6829 4.8221 14.6492 5.09668" stroke="black" stroke-width="0.829206" stroke-miterlimit="10"/>
<path opacity="0.5" d="M11.693 7.17578C12.6593 6.9012 13.6829 6.9012 14.6492 7.17578" stroke="black" stroke-width="0.829206" stroke-miterlimit="10"/>
<path opacity="0.5" d="M11.693 9.24268C12.6593 8.9681 13.6829 8.9681 14.6492 9.24268" stroke="black" stroke-width="0.829206" stroke-miterlimit="10"/>
</g>
<defs>
<clipPath id="clip0">
<rect width="17.87" height="14.3489" fill="white" transform="translate(0 0.325562)"/>
</clipPath>
</defs>
</svg>
