<svg width="137" height="124" viewBox="0 0 137 124" fill="none" xmlns="http://www.w3.org/2000/svg">
<g opacity="0.7" clip-path="url(#clip0)">
<path d="M78.664 45.3028C82.9872 43.0487 86.8499 40.0042 90.0517 36.3273C96.6857 28.2389 99.098 2.02246 99.098 2.02246C69.4758 7.76951 69.7951 49.0987 69.7951 49.0987" stroke="white" stroke-width="3.54756" stroke-miterlimit="10"/>
<path d="M61.4585 38.2064C42.408 21.7457 18.8877 31.1113 18.8877 31.1113C25.0605 50.1262 47.5519 60.1304 61.8131 54.2414C64.6386 52.7331 67.3536 51.0259 69.9372 49.1329" stroke="white" stroke-width="3.54756" stroke-miterlimit="10"/>
<path d="M68.4469 46.792C68.4469 46.792 88.668 62.5787 69.9724 94.5068C69.9724 94.5068 67.0278 97.1674 67.0278 93.336C67.0278 92.0944 82.5661 66.1263 67.4535 49.5237L68.4469 46.792Z" fill="white"/>
<path d="M44.1817 121.433C44.6121 117.902 44.3282 114.321 43.347 110.902C42.3658 107.483 40.7075 104.296 38.4702 101.531C36.2707 98.5867 21.761 99.3673 14.4176 92.7333C7.07413 86.0994 2.56885 65.0979 2.56885 65.0979C2.56885 65.0979 3.66859 52.5748 6.11641 51.8653C8.56423 51.1558 11.2604 55.9096 9.66397 63.2531C8.91899 66.8006 13.8499 76.379 19.0294 81.3456C24.2088 86.3122 27.1179 85.8155 27.1179 85.8155C25.4348 85.6608 23.811 85.1152 22.376 84.2221C20.941 83.3291 19.7342 82.1132 18.852 80.6715C15.6947 76.5918 13.6726 71.4835 16.9009 69.0711C20.8387 66.0912 22.0094 72.2639 25.5215 74.9955C27.3662 76.45 29.4238 76.45 38.1153 77.1595C39.9781 77.3829 41.7782 77.9735 43.4113 78.8971C45.0444 79.8207 46.4783 81.059 47.6297 82.5404C48.7811 84.0217 49.6272 85.7167 50.1193 87.5272C50.6114 89.3377 50.7394 91.2276 50.4962 93.088C49.7867 98.977 60.4295 117.921 60.0747 122.533" stroke="white" stroke-width="3.54756" stroke-miterlimit="10"/>
<path d="M92.8189 122.391C92.3856 118.863 92.6645 115.283 93.6395 111.865C94.6145 108.446 96.2656 105.258 98.4949 102.489C100.73 99.5447 115.204 100.325 122.583 93.6913C129.962 87.0574 134.396 66.0557 134.396 66.0557C134.396 66.0557 133.296 53.5328 130.849 52.8233C128.401 52.1138 125.705 56.8676 127.301 64.2111C128.011 67.7587 122.654 76.9113 117.9 82.3036C115.837 84.7273 112.962 86.3164 109.812 86.7735C111.499 86.6187 113.128 86.0733 114.569 85.1806C116.01 84.2878 117.223 83.0721 118.113 81.6295C121.235 77.5498 123.257 72.4413 120.064 70.0289C116.091 67.049 114.956 73.2219 111.408 75.9535C109.563 77.3725 107.506 77.408 98.8143 78.1175C96.9514 78.3409 95.1514 78.9315 93.5183 79.8551C91.8852 80.7787 90.4513 82.017 89.2999 83.4984C88.1485 84.9797 87.3024 86.6745 86.8103 88.485C86.3182 90.2955 86.1899 92.1856 86.4331 94.046C87.1781 99.935 76.5001 118.879 76.8548 123.491" stroke="white" stroke-width="3.54756" stroke-miterlimit="10"/>
<path d="M37.2637 38.7036C37.2637 38.7036 42.6559 51.1201 61.5999 45.7987" stroke="white" stroke-width="3.54756" stroke-miterlimit="10"/>
</g>
<defs>
<clipPath id="clip0">
<rect width="135.41" height="123.633" fill="white" transform="translate(0.794922)"/>
</clipPath>
</defs>
</svg>
