<svg width="21" height="21" viewBox="0 0 21 21" fill="none" xmlns="http://www.w3.org/2000/svg">
<path d="M20.9524 17.0466C20.9524 12.6449 20.9524 8.24319 20.9524 3.84149C20.9426 2.90892 20.6001 2.01051 19.9867 1.30796C19.3733 0.605417 18.5293 0.14488 17.6066 0.00927814C17.409 -0.00309271 17.2109 -0.00309271 17.0134 0.00927814H3.89156C2.95053 0.00455145 2.03926 0.338931 1.32461 0.951175C0.60996 1.56342 0.139719 2.41256 0 3.34317V3.44998V17.5686L0.106594 18.0076C0.295089 18.7624 0.701781 19.4451 1.27566 19.9704C1.84953 20.4958 2.56516 20.8406 3.33368 20.9618H3.44056H17.571C17.8794 20.8669 18.2117 20.7957 18.5083 20.6771C19.2337 20.3882 19.8551 19.8871 20.2911 19.2394C20.7272 18.5916 20.9577 17.8274 20.9524 17.0466ZM16.9187 6.36862H16.2898C15.8983 6.36862 15.5186 6.36862 15.1034 6.36862C15.0251 6.36512 14.9469 6.37815 14.874 6.40689C14.801 6.43563 14.735 6.47941 14.6802 6.53539C14.6253 6.59136 14.5829 6.65826 14.5556 6.73174C14.5284 6.80522 14.5169 6.88363 14.522 6.96184C14.522 7.53133 14.522 8.14826 14.522 8.71775H16.7168C16.6337 9.53639 16.5507 10.3313 16.4558 11.15H14.4864V18.4229H11.2237V11.1618H9.96599V8.72962H11.2237C11.2177 8.63084 11.2177 8.53179 11.2237 8.43301C11.2237 7.67369 11.2235 6.90251 11.3184 6.14319C11.3684 5.59249 11.6092 5.07652 11.9991 4.68444C12.389 4.29235 12.9036 4.04877 13.4541 3.99574C13.8468 3.93636 14.2433 3.90462 14.6405 3.9008H16.8593L16.9187 6.36862Z" fill="black"/>
</svg>
