<svg width="31" height="28" viewBox="0 0 31 28" fill="none" xmlns="http://www.w3.org/2000/svg">
<path d="M27.3766 3.95238C25.9887 2.57896 24.1152 1.80859 22.1627 1.80859C20.2101 1.80859 18.3363 2.57896 16.9484 3.95238V3.95238L15.2049 5.71139L13.4461 3.95238C12.0395 2.65153 10.1838 1.94582 8.26823 1.98322C6.35266 2.02063 4.52603 2.79824 3.17126 4.15301C1.81649 5.50778 1.03882 7.33447 1.00141 9.25004C0.964011 11.1656 1.66987 13.0213 2.97072 14.4279V14.4279L4.71381 16.1712L15.2049 26.6467L25.6807 16.1712L27.4237 14.4279C28.1116 13.7387 28.6563 12.9202 29.0265 12.0196C29.3966 11.119 29.5849 10.154 29.5806 9.18032C29.5762 8.20662 29.3794 7.2434 29.0012 6.34616C28.6229 5.44891 28.0706 4.63536 27.3766 3.95238V3.95238Z" stroke="white" stroke-width="2" stroke-linecap="round" stroke-linejoin="round"/>
</svg>
