<svg width="96" height="101" viewBox="0 0 96 101" fill="none" xmlns="http://www.w3.org/2000/svg">
<g opacity="0.6">
<path d="M52.4371 25.478C39.885 16.4991 43.8247 2 43.8247 2C57.7511 3.85533 60.1334 26.463 60.1334 26.463C64.3765 22.2667 69.6351 19.2421 75.3959 17.6845C81.1567 16.1269 87.2228 16.0895 93.0024 17.5757C81.1375 30.9524 72.0441 33.6094 64.2563 30.4942C62.7211 29.6555 61.2442 28.7143 59.8356 27.6769" stroke="black" stroke-width="2.25982" stroke-miterlimit="10"/>
<path d="M54.1177 46.9134L52.6518 44.1647C51.9435 42.8623 50.7504 41.8915 49.3312 41.4627C47.912 41.034 46.3811 41.1818 45.0701 41.8742L32.2431 48.7458C30.9407 49.454 29.9698 50.6472 29.5411 52.0664C29.1123 53.4856 29.2602 55.0165 29.9526 56.3274L31.4414 59.0532L32.2202 60.5191L45.0243 84.3865L48.8953 91.6017L52.8579 99.0001L75.5571 86.8144L71.5945 79.439" stroke="black" stroke-width="2.25982" stroke-miterlimit="10"/>
<path d="M71.5715 79.4387L54.1177 46.9131" stroke="black" stroke-width="2.25982" stroke-linecap="round" stroke-linejoin="round" stroke-dasharray="2.29 4.58 2.29 4.58 2.29 4.58"/>
<path d="M30.6398 49.5473L27.9141 44.4623L43.8791 35.8958L46.6048 40.9807" stroke="black" stroke-width="2.25982" stroke-miterlimit="10"/>
<path d="M33.1364 41.6906L25.3257 22.977L27.5475 21.7859L38.8169 38.6442" stroke="black" stroke-width="2.25982" stroke-miterlimit="10"/>
<path d="M23.0123 14.649C23.0123 14.649 18.1334 7.54841 21.9815 5.12044C25.8296 2.69248 28.6699 10.3886 23.0123 14.649Z" stroke="black" stroke-width="2.25982" stroke-miterlimit="10"/>
<path d="M18.3912 19.7428C18.3912 19.7428 11.7487 21.6211 10.9012 18.0707C10.0537 14.5204 16.6275 14.36 18.3912 19.7428Z" stroke="black" stroke-width="2.25982" stroke-miterlimit="10"/>
<path d="M60.3395 26.3479C60.3395 26.3479 48.8868 31.7078 53.4679 47.856C53.4679 47.856 55.7584 49.5053 55.5523 48.6578C54.3841 44.5578 54.0175 31.7078 61.0037 28.2262L60.3395 26.3479Z" fill="black"/>
<path d="M21.2936 86.4206C13.9939 96.7085 2.13049 93.5338 2.13049 93.5338C3.60331 82.1449 22.0747 80.1269 22.0747 80.1269C18.6315 76.6718 17.2934 74.8013 16.0022 70.0975C14.711 65.3937 16.6527 64.1759 17.8494 59.4472C23.7582 64.2254 27.8785 70.369 25.3567 76.7443C24.676 78.0017 23.9113 79.2119 23.0678 80.3665" stroke="black" stroke-width="2.25982" stroke-miterlimit="10"/>
<path d="M22.7081 81.231C22.7081 81.231 29.8512 89.7857 42.5826 82.2503C42.5826 82.2503 43.473 79.9274 42.7971 80.2937C39.5657 82.2112 28.6974 85.4133 24.1594 80.2426L22.7081 81.231Z" fill="black"/>
<path d="M37.0762 57.7244L55.011 91.0058L68.4336 83.7906" stroke="black" stroke-width="2.25982" stroke-miterlimit="10"/>
</g>
</svg>
