<svg width="26" height="22" viewBox="0 0 26 22" fill="none" xmlns="http://www.w3.org/2000/svg">
<path d="M22.2388 2.72621C21.1213 1.62031 19.6127 1 18.0405 1C16.4683 1 14.9594 1.62031 13.8419 2.72621V2.72621L12.438 4.14259L11.0218 2.72621C9.88915 1.67874 8.39493 1.1105 6.85249 1.14061C5.31004 1.17073 3.83921 1.79688 2.74833 2.88776C1.65745 3.97864 1.03126 5.44952 1.00114 6.99196C0.971021 8.5344 1.53939 10.0286 2.58686 11.1612V11.1612L3.99041 12.565L12.438 21L20.8732 12.565L22.2768 11.1612C22.8307 10.6063 23.2693 9.94724 23.5674 9.22205C23.8654 8.49686 24.017 7.71987 24.0135 6.93583C24.01 6.15179 23.8515 5.37619 23.547 4.65371C23.2424 3.93124 22.7976 3.27616 22.2388 2.72621V2.72621Z" stroke="black" stroke-width="2" stroke-linecap="round" stroke-linejoin="round"/>
</svg>
