<svg width="21" height="21" viewBox="0 0 21 21" fill="none" xmlns="http://www.w3.org/2000/svg">
<path fill-rule="evenodd" clip-rule="evenodd" d="M10.4029 0C7.57766 0 7.2234 0.0120124 6.11381 0.0627958C5.00654 0.113455 4.25032 0.289871 3.58862 0.547848C2.90453 0.814481 2.32438 1.17129 1.74601 1.75141C1.16768 2.33156 0.811974 2.9135 0.546161 3.5997C0.288979 4.26344 0.113106 5.022 0.0626025 6.13269C0.0119754 7.2457 0 7.60106 0 10.4351C0 13.269 0.0119754 13.6244 0.0626025 14.7374C0.113106 15.8481 0.288979 16.6067 0.546161 17.2704C0.811974 17.9566 1.16768 18.5385 1.74601 19.1187C2.32438 19.6988 2.90453 20.0556 3.58862 20.3223C4.25032 20.5802 5.00654 20.7567 6.11381 20.8073C7.2234 20.8581 7.57766 20.8701 10.4029 20.8701C13.2282 20.8701 13.5825 20.8581 14.692 20.8073C15.7993 20.7567 16.5555 20.5802 17.2172 20.3223C17.9013 20.0556 18.4815 19.6988 19.0598 19.1187C19.6382 18.5385 19.9939 17.9566 20.2597 17.2704C20.5169 16.6067 20.6928 15.8481 20.7433 14.7374C20.7939 13.6244 20.8059 13.269 20.8059 10.4351C20.8059 7.60106 20.7939 7.2457 20.7433 6.13269C20.6928 5.022 20.5169 4.26344 20.2597 3.5997C19.9939 2.9135 19.6382 2.33156 19.0598 1.75141C18.4815 1.17129 17.9013 0.814481 17.2172 0.547848C16.5555 0.289871 15.7993 0.113455 14.692 0.0627958C13.5825 0.0120124 13.2282 0 10.4029 0ZM10.4009 1.8803C13.1786 1.8803 13.5076 1.89095 14.6046 1.94115C15.6189 1.98754 16.1697 2.15754 16.5363 2.30045C17.0218 2.48974 17.3684 2.71587 17.7324 3.08104C18.0965 3.44618 18.3219 3.79379 18.5106 4.28087C18.6531 4.64858 18.8225 5.2011 18.8688 6.21851C18.9188 7.31885 18.9294 7.6489 18.9294 10.4352C18.9294 13.2214 18.9188 13.5515 18.8688 14.6518C18.8225 15.6692 18.6531 16.2218 18.5106 16.5895C18.3219 17.0765 18.0965 17.4242 17.7324 17.7893C17.3684 18.1545 17.0218 18.3806 16.5363 18.5699C16.1697 18.7128 15.6189 18.8828 14.6046 18.9292C13.5078 18.9794 13.1788 18.99 10.4009 18.99C7.62301 18.99 7.29406 18.9794 6.19723 18.9292C5.18296 18.8828 4.63213 18.7128 4.26556 18.5699C3.77998 18.3806 3.43344 18.1545 3.06942 17.7893C2.70541 17.4242 2.47995 17.0765 2.29123 16.5895C2.14876 16.2218 1.97929 15.6692 1.93304 14.6518C1.88299 13.5515 1.87238 13.2214 1.87238 10.4352C1.87238 7.6489 1.88299 7.31885 1.93304 6.21851C1.97929 5.2011 2.14876 4.64858 2.29123 4.28087C2.47995 3.79379 2.70537 3.44618 3.06942 3.08104C3.43344 2.71587 3.77998 2.48974 4.26556 2.30045C4.63213 2.15754 5.18296 1.98754 6.19723 1.94115C7.29418 1.89095 7.62322 1.8803 10.4009 1.8803ZM10.4046 14.1961C8.33195 14.1961 6.6518 12.5108 6.6518 10.4318C6.6518 8.35281 8.33195 6.66748 10.4046 6.66748C12.4771 6.66748 14.1573 8.35281 14.1573 10.4318C14.1573 12.5108 12.4771 14.1961 10.4046 14.1961ZM10.4043 4.63255C7.21139 4.63255 4.62307 7.22886 4.62307 10.4317C4.62307 13.6344 7.21139 16.2307 10.4043 16.2307C13.5972 16.2307 16.1855 13.6344 16.1855 10.4317C16.1855 7.22886 13.5972 4.63255 10.4043 4.63255ZM16.1862 5.79232C16.8248 5.79232 17.3424 5.27308 17.3424 4.63252C17.3424 3.99197 16.8248 3.47269 16.1862 3.47269C15.5476 3.47269 15.0299 3.99197 15.0299 4.63252C15.0299 5.27308 15.5476 5.79232 16.1862 5.79232Z" fill="black"/>
</svg>
