<svg width="24" height="25" viewBox="0 0 24 25" fill="none" xmlns="http://www.w3.org/2000/svg">
<g clip-path="url(#clip0)">
<path d="M19 0.961823H5C2.239 0.961823 0 3.20082 0 5.96182V19.9618C0 22.7228 2.239 24.9618 5 24.9618H19C21.762 24.9618 24 22.7228 24 19.9618V5.96182C24 3.20082 21.762 0.961823 19 0.961823ZM8 19.9618H5V8.96182H8V19.9618ZM6.5 7.69382C5.534 7.69382 4.75 6.90382 4.75 5.92982C4.75 4.95582 5.534 4.16582 6.5 4.16582C7.466 4.16582 8.25 4.95582 8.25 5.92982C8.25 6.90382 7.467 7.69382 6.5 7.69382ZM20 19.9618H17V14.3578C17 10.9898 13 11.2448 13 14.3578V19.9618H10V8.96182H13V10.7268C14.396 8.14082 20 7.94982 20 13.2028V19.9618Z" fill="black"/>
</g>
<defs>
<clipPath id="clip0">
<rect width="24" height="24" fill="white" transform="translate(0 0.961823)"/>
</clipPath>
</defs>
</svg>
