<?xml version="1.0" encoding="utf-8"?>
<!-- Generator: Adobe Illustrator 24.0.2, SVG Export Plug-In . SVG Version: 6.00 Build 0)  -->
<svg version="1.1" id="Livello_1" xmlns="http://www.w3.org/2000/svg" xmlns:xlink="http://www.w3.org/1999/xlink" x="0px" y="0px"
	 viewBox="0 0 246.5 300.4" style="enable-background:new 0 0 246.5 300.4;" xml:space="preserve">
<style type="text/css">
	.st0{fill:#FFFFFF;}
</style>
<g>
	<g>
		<path d="M107.1,31.1v77.7H73.8V43.5c-0.2-4.6-1.4-8.3-3.7-11c-2.3-2.8-6.1-4.2-11.5-4.2c-5.1,0-9.5,1.7-13.3,5
			c-3.8,3.3-6.7,7.8-8.8,13.5c-2,5.7-3.1,12.3-3.1,19.7v42.3H0V5h30.2l2.3,16.6c3.6-6.3,8.7-11.5,15.3-15.5C54.5,2,62.7,0,72.3,0
			c9.8,0,18,2.9,24.6,8.7C103.6,14.5,106.9,22,107.1,31.1L107.1,31.1z"/>
		<path d="M246.5,5v103.9h-30.2l-2.3-16.6c-2.4,4.2-5.3,7.9-8.9,11.1c-3.7,3.3-8,5.9-13,7.7c-5,1.8-10.6,2.7-16.8,2.7
			c-9.4,0-17.2-2.9-23.6-8.7c-6.3-5.8-9.7-13.3-10-22.5V5h33.3v65.4c0.3,4.6,1.5,8.3,3.6,11c2.1,2.8,5.6,4.2,10.5,4.2
			c4.9,0,9.2-1.7,12.7-5c3.6-3.3,6.3-7.9,8.3-13.7c2-5.8,3-12.3,3-19.6V5H246.5z"/>
		<path d="M107.1,217.7v77.7H73.8v-65.4c-0.2-4.6-1.4-8.3-3.7-11c-2.3-2.8-6.1-4.2-11.5-4.2c-5.1,0-9.5,1.7-13.3,5
			c-3.8,3.3-6.7,7.8-8.8,13.5c-2,5.7-3.1,12.3-3.1,19.7v42.3H0V143.9h32.6v64.1c3.6-6.3,8.7-11.5,15.2-15.4c6.7-4,14.8-6.1,24.5-6.1
			c9.8,0,18,2.9,24.6,8.7C103.6,201,106.9,208.5,107.1,217.7L107.1,217.7z"/>
		<path d="M206.4,149.4c3.6-3.2,7.5-4.9,11.8-4.9c4,0,7.7,1.6,11.3,4.9c3.6,3.3,5.4,7.4,5.4,12.5c0,5.1-1.8,9.2-5.4,12.4
			c-3.6,3.2-7.3,4.8-11.3,4.8c-4.3,0-8.2-1.6-11.8-4.8c-3.6-3.2-5.4-7.3-5.4-12.4C201,156.8,202.8,152.6,206.4,149.4L206.4,149.4z
			 M159.3,149.4c3.6-3.2,7.5-4.9,11.8-4.9c4,0,7.7,1.6,11.3,4.9c3.6,3.3,5.4,7.4,5.4,12.5c0,5.1-1.8,9.2-5.4,12.4
			c-3.6,3.2-7.3,4.8-11.3,4.8c-4.3,0-8.2-1.6-11.8-4.8c-3.6-3.2-5.4-7.3-5.4-12.4C153.9,156.8,155.7,152.6,159.3,149.4L159.3,149.4z
			 M175.3,300.4c-9.4,0-17.2-2.9-23.6-8.7c-6.3-5.8-9.7-13.3-10-22.5v-77.7h33.3v65.4c0.3,4.6,1.5,8.3,3.6,11.1
			c2.1,2.8,5.6,4.2,10.5,4.2c4.9,0,9.2-1.7,12.7-5s6.3-7.9,8.3-13.7c2-5.8,3-12.3,3-19.6v-42.3h33.3v103.9h-30.2l-2.6-19l0.5,2.1
			c-2.4,4.3-5.4,8.1-9,11.4c-3.7,3.3-8,5.9-13,7.7C187.1,299.5,181.5,300.4,175.3,300.4L175.3,300.4z"/>
	</g>
</g>
</svg>
