<svg width="324" height="128" viewBox="0 0 324 128" fill="none" xmlns="http://www.w3.org/2000/svg">
<g opacity="0.2" clip-path="url(#clip0)">
<path d="M14.7163 98.3084C14.6082 98.4218 14.5002 98.5351 14.2841 98.6485C14.068 98.7619 13.8519 98.9886 13.4196 99.102C13.0955 99.2153 12.6633 99.3287 12.123 99.4421C11.5828 99.5554 11.0425 99.5554 10.3942 99.5554C9.20566 99.5554 8.12516 99.3287 7.20673 98.9886C6.34232 98.5351 5.58596 97.9683 5.04571 97.2881C4.50545 96.4946 4.07325 95.701 3.7491 94.6241C3.42494 93.6038 3.31689 92.4701 3.31689 91.1664C3.31689 89.8627 3.42494 88.8991 3.7491 87.7088C4.07325 86.6885 4.50545 85.7816 5.04571 85.0447C5.58596 84.2512 6.34232 83.6844 7.20673 83.3443C8.07113 82.8908 9.15164 82.6641 10.3942 82.6641C10.9345 82.6641 11.4747 82.6641 12.015 82.7774C12.4472 82.8908 12.8794 83.0042 13.3116 83.1175C13.6358 83.2309 13.9599 83.4576 14.176 83.571C14.3921 83.6843 14.6082 83.9111 14.7163 84.0245C14.8243 84.1378 14.9324 84.2512 15.0404 84.4779C15.1485 84.7046 15.1485 84.818 15.1485 85.0447C15.1485 85.3848 15.0404 85.7249 14.8243 85.9517C14.6082 86.2917 14.3921 86.5185 14.068 86.8586C13.8519 86.6318 13.6358 86.5185 13.4196 86.2917C13.2035 86.065 12.9874 85.9517 12.6633 85.7249C12.3391 85.6116 12.015 85.4982 11.6908 85.3848C11.4747 85.3848 11.0425 85.3848 10.6103 85.3848C9.85397 85.3848 9.20567 85.4982 8.66541 85.8383C8.12516 86.1784 7.69295 86.6318 7.3688 87.0853C7.04465 87.6521 6.82855 88.2189 6.7205 88.8991C6.61244 89.5793 6.61244 90.2595 6.61244 90.9397C6.61244 91.7332 6.7205 92.4134 6.82855 93.0936C6.9366 93.7738 7.1527 94.3406 7.5849 94.9075C7.90906 95.4743 8.34126 95.8144 8.88151 96.1545C9.42177 96.4946 10.0701 96.6079 10.9345 96.6079C11.3667 96.6079 11.7989 96.6079 12.123 96.4946C12.4472 96.3812 12.7713 96.2678 13.0955 96.0411C13.4196 95.9277 13.6358 95.701 13.8519 95.5877C14.068 95.3609 14.176 95.2476 14.3921 95.1342C14.5002 95.2476 14.6082 95.3609 14.7163 95.5877C14.8243 95.701 14.9324 95.9277 15.0404 96.0411C15.1485 96.2678 15.2565 96.3812 15.3646 96.6079C15.4726 96.8347 15.4726 96.948 15.4726 97.0614C15.4726 97.2881 15.4726 97.4015 15.3646 97.6282C14.9324 97.9683 14.8243 98.0817 14.7163 98.3084Z" fill="#0A0A0A"/>
<path d="M33.4091 91.1101C33.4091 92.2438 33.3011 93.3774 32.9769 94.4544C32.7608 95.4746 32.3286 96.3816 31.7884 97.2318C31.2481 98.0254 30.4917 98.5922 29.6273 99.0456C28.7629 99.4991 27.6824 99.7258 26.4398 99.7258C25.1973 99.7258 24.1708 99.4991 23.2523 99.0456C22.3879 98.5922 21.7396 98.0254 21.0913 97.2318C20.5511 96.4382 20.1189 95.5313 19.9028 94.4544C19.6867 93.4341 19.5786 92.4138 19.5786 91.2235C19.5786 90.0898 19.6867 89.0695 20.0108 87.9926C20.335 86.9723 20.6591 86.0654 21.3074 85.3285C21.8477 84.5349 22.604 83.9681 23.4684 83.5147C24.3329 83.0612 25.4134 82.8345 26.6559 82.8345C27.8985 82.8345 28.925 83.0612 29.7354 83.5147C30.5998 83.9681 31.2481 84.5349 31.7884 85.2151C32.3286 86.0087 32.7608 86.8022 32.9769 87.8792C33.3011 88.7861 33.4091 89.9765 33.4091 91.1101ZM30.2216 91.1101C30.2216 90.3166 30.1136 89.6364 30.0055 88.9562C29.8975 88.276 29.6814 87.7092 29.3572 87.1423C29.0331 86.5755 28.7089 86.2354 28.2767 85.8953C27.8445 85.5552 27.3042 85.4419 26.5479 85.4419C25.8996 85.4419 25.2513 85.5552 24.8191 85.8953C24.3869 86.2354 23.9547 86.5755 23.6305 87.1423C23.3064 87.7092 23.0903 88.276 22.9822 88.9562C22.8742 89.6364 22.7661 90.3166 22.7661 91.1101C22.7661 91.9037 22.8742 92.5838 22.9822 93.264C23.0903 93.9442 23.3064 94.6244 23.6305 95.0779C23.9547 95.6447 24.2788 96.0981 24.711 96.3249C25.1432 96.665 25.7915 96.7783 26.4398 96.7783C27.0881 96.7783 27.7365 96.665 28.1687 96.3249C28.6009 95.9848 29.0331 95.5313 29.2492 95.0779C29.5733 94.5111 29.6814 93.9442 29.8975 93.264C30.1136 92.5838 30.2216 91.9037 30.2216 91.1101Z" fill="#0A0A0A"/>
<path d="M51.3453 99.2718H48.6981L42.161 88.7289V99.2718H39.0815V83.2307C39.1896 83.2307 39.4057 83.1173 39.7299 83.1173C39.946 83.1173 40.2701 83.1173 40.4862 83.1173C40.9184 83.1173 41.3506 83.2307 41.5667 83.344C41.8909 83.5708 42.107 83.7975 42.3231 84.1376L48.2118 94.2271V83.0606C48.4279 83.0606 48.644 82.9473 48.7521 82.9473C48.9682 82.9473 49.0763 82.9473 49.1843 82.9473C49.4004 82.9473 49.6165 82.9473 49.8326 83.0606C50.0487 83.0606 50.2648 83.174 50.4809 83.2874C50.697 83.4007 50.8051 83.6275 50.9131 83.8542C51.0212 84.0809 51.1292 84.421 51.1292 84.7611V99.2151H51.3453V99.2718Z" fill="#0A0A0A"/>
<path d="M60.5298 89.4095H65.4461V91.9602H60.5298V99.2722H57.3423V83.061H66.9588C66.9588 83.2878 66.9588 83.4011 67.0669 83.5145C67.0669 83.6279 67.0669 83.7412 67.0669 83.968C67.0669 84.4214 66.9588 84.8749 66.6347 85.1016C66.4186 85.4417 65.8783 85.5551 65.23 85.5551H60.5298C60.5298 85.6117 60.5298 89.4095 60.5298 89.4095Z" fill="#0A0A0A"/>
<path d="M71.9832 83.0606C72.1993 83.0606 72.4154 82.9473 72.6315 82.9473C72.8476 82.9473 72.9557 82.9473 73.0637 82.9473C73.2798 82.9473 73.4959 82.9473 73.712 83.0606C73.9281 83.0606 74.1442 83.174 74.3603 83.2874C74.5764 83.4007 74.6845 83.6275 74.9006 83.8542C75.0087 84.0809 75.1167 84.421 75.1167 84.7611V99.2151H71.9292C71.9832 99.2718 71.9832 83.0606 71.9832 83.0606Z" fill="#0A0A0A"/>
<path d="M93.4314 90.8828C93.4314 92.0164 93.3234 93.0367 92.9992 94.1137C92.6751 95.1339 92.2429 96.0409 91.7026 96.7777C91.1624 97.5713 90.406 98.1381 89.4335 98.5916C88.5691 99.045 87.4886 99.2718 86.138 99.2718H81.2217V83.2306C82.1941 83.1173 83.0585 83.0039 83.7609 83.0039C84.4632 83.0039 85.0575 83.0039 85.4897 83.0039C87.0024 83.0039 88.353 83.2306 89.3255 83.6841C90.2979 84.1376 91.1624 84.7044 91.7566 85.3846C92.4049 86.0648 92.7291 86.9717 93.0533 87.9353C93.3234 88.7855 93.4314 89.8625 93.4314 90.8828ZM90.1359 90.8828C90.1359 90.0892 90.0278 89.409 89.9198 88.8422C89.8117 88.2754 89.5956 87.5952 89.1634 87.1417C88.8393 86.6883 88.4071 86.2348 87.8668 86.0081C87.3266 85.7814 86.5702 85.5546 85.7058 85.5546C85.2736 85.5546 84.8414 85.5546 84.3011 85.668V96.7777H85.5977C86.4621 96.7777 87.2185 96.6644 87.7588 96.3243C88.299 96.0975 88.8393 95.6441 89.1634 95.1906C89.4876 94.7372 89.7037 94.057 89.9198 93.3768C90.1359 92.5832 90.1359 91.7897 90.1359 90.8828Z" fill="#0A0A0A"/>
<path d="M107.046 96.6081C107.802 96.6081 108.234 96.8349 108.558 97.175C108.774 97.515 108.99 97.9685 108.99 98.3086C108.99 98.5353 108.99 98.6487 108.99 98.7621C108.99 98.8754 108.99 98.9888 108.99 99.1021H99.0498V83.061H108.666C108.666 83.2878 108.666 83.4011 108.774 83.5145C108.774 83.6279 108.774 83.7412 108.774 83.968C108.774 84.5348 108.666 84.9882 108.342 85.215C108.018 85.4417 107.586 85.6684 106.829 85.6684H102.345V89.6929H107.262V92.2436H102.345V96.7215H107.046V96.6081Z" fill="#0A0A0A"/>
<path d="M126.063 99.2718H123.415L116.878 88.7289V99.2718H113.799V83.2307C113.907 83.2307 114.123 83.1173 114.447 83.1173C114.663 83.1173 114.987 83.1173 115.203 83.1173C115.636 83.1173 116.068 83.2307 116.284 83.344C116.608 83.5708 116.824 83.7975 117.04 84.1376L122.929 94.2271V83.0606C123.145 83.0606 123.361 82.9473 123.469 82.9473C123.685 82.9473 123.794 82.9473 123.902 82.9473C124.118 82.9473 124.334 82.9473 124.55 83.0606C124.766 83.0606 124.982 83.174 125.198 83.2874C125.414 83.4007 125.522 83.6275 125.63 83.8542C125.738 84.0809 125.847 84.421 125.847 84.7611V99.2151H126.063V99.2718Z" fill="#0A0A0A"/>
<path d="M143.135 98.3083C143.027 98.4217 142.919 98.5351 142.703 98.6484C142.486 98.7618 142.27 98.9885 141.838 99.1019C141.514 99.2152 141.082 99.3286 140.541 99.442C140.001 99.5553 139.461 99.5553 138.813 99.5553C137.624 99.5553 136.544 99.3286 135.625 98.9885C134.761 98.5351 134.004 97.9682 133.464 97.288C132.924 96.4945 132.492 95.7009 132.168 94.624C131.843 93.6037 131.735 92.47 131.735 91.2797C131.735 90.0327 131.843 89.0124 132.168 87.8221C132.492 86.8018 132.924 85.8949 133.464 85.158C134.004 84.3645 134.761 83.7976 135.625 83.4575C136.49 83.0041 137.57 82.7773 138.813 82.7773C139.353 82.7773 139.893 82.7774 140.433 82.8907C140.866 83.0041 141.298 83.1174 141.73 83.2308C142.054 83.3442 142.378 83.5709 142.594 83.6843C142.811 83.7976 143.027 84.0244 143.135 84.1377C143.243 84.2511 143.351 84.3645 143.459 84.5912C143.567 84.8179 143.567 84.9313 143.567 85.158C143.567 85.4981 143.459 85.8382 143.243 86.0649C143.027 86.405 142.811 86.6317 142.486 86.9718C142.27 86.7451 142.054 86.6317 141.838 86.405C141.622 86.1783 141.406 86.0649 141.082 85.8382C140.758 85.7248 140.433 85.6115 140.109 85.4981C139.785 85.3847 139.353 85.3847 138.921 85.3847C138.164 85.3847 137.516 85.4981 136.976 85.8382C136.436 86.1783 136.003 86.6318 135.679 87.0852C135.355 87.652 135.139 88.2188 135.031 88.899C134.923 89.5792 134.815 90.2594 134.815 90.9396C134.815 91.7332 134.923 92.4134 135.031 93.0936C135.139 93.7737 135.355 94.3406 135.787 94.9074C136.111 95.4742 136.544 95.8143 137.084 96.1544C137.624 96.4945 138.272 96.6079 139.137 96.6079C139.569 96.6079 140.001 96.6079 140.325 96.4945C140.65 96.3811 140.974 96.2678 141.298 96.041C141.622 95.9277 141.838 95.7009 142.054 95.5876C142.27 95.3608 142.378 95.2475 142.594 95.1341C142.702 95.2475 142.811 95.3608 142.919 95.5876C143.027 95.7009 143.135 95.9277 143.243 96.041C143.351 96.2678 143.459 96.3811 143.567 96.6079C143.675 96.8346 143.675 96.948 143.675 97.0613C143.675 97.288 143.675 97.4014 143.567 97.6281C143.459 97.9682 143.351 98.0816 143.135 98.3083Z" fill="#0A0A0A"/>
<path d="M157.235 96.6081C157.991 96.6081 158.424 96.8349 158.748 97.175C158.964 97.515 159.18 97.9685 159.18 98.3086C159.18 98.5353 159.18 98.6487 159.18 98.7621C159.18 98.8754 159.18 98.9888 159.18 99.1021H149.239V83.061H158.856C158.856 83.2878 158.856 83.4011 158.964 83.5145C158.964 83.6279 158.964 83.7412 158.964 83.968C158.964 84.5348 158.856 84.9882 158.532 85.215C158.207 85.4417 157.775 85.6684 157.019 85.6684H152.535V89.6929H157.451V92.2436H152.535V96.7215H157.235V96.6081Z" fill="#0A0A0A"/>
<path d="M172.416 83.0606C172.632 83.0606 172.849 82.9473 173.065 82.9473C173.281 82.9473 173.389 82.9473 173.497 82.9473C173.713 82.9473 173.929 82.9473 174.145 83.0606C174.361 83.0606 174.577 83.174 174.793 83.2874C175.01 83.4007 175.118 83.6275 175.334 83.8542C175.442 84.0809 175.55 84.421 175.55 84.7611V99.2151H172.362L172.416 83.0606Z" fill="#0A0A0A"/>
<path d="M193.756 99.2718H191.109L184.572 88.6722V99.2151H181.493V83.174C181.601 83.174 181.817 83.0606 182.141 83.0606C182.357 83.0606 182.681 83.0606 182.897 83.0606C183.33 83.0606 183.762 83.174 183.978 83.2874C184.302 83.5141 184.518 83.7408 184.734 84.0809L190.623 94.1704V83.0606C190.839 83.0606 191.055 82.9473 191.163 82.9473C191.379 82.9473 191.487 82.9473 191.595 82.9473C191.812 82.9473 192.028 82.9473 192.244 83.0606C192.46 83.0606 192.676 83.174 192.892 83.2874C193.108 83.4007 193.216 83.6275 193.324 83.8542C193.432 84.0809 193.54 84.421 193.54 84.7611V99.2151H193.756V99.2718Z" fill="#0A0A0A"/>
<path d="M211.531 85.7251H206.722C206.722 85.4983 206.722 85.385 206.614 85.2716C206.614 85.1582 206.614 85.0449 206.614 84.8181C206.614 84.3647 206.722 84.0246 207.046 83.6845C207.371 83.3444 207.803 83.1177 208.559 83.1177H219.364C219.364 83.4578 219.472 83.7979 219.472 84.138C219.472 84.5914 219.364 84.9315 219.04 85.2716C218.716 85.6117 218.284 85.8384 217.635 85.8384H214.826V99.2722H211.639V85.7251H211.531Z" fill="#0A0A0A"/>
<path d="M232.331 96.6081C233.087 96.6081 233.519 96.8349 233.843 97.175C234.06 97.515 234.276 97.9685 234.276 98.3086C234.276 98.5353 234.276 98.6487 234.276 98.7621C234.276 98.8754 234.276 98.9888 234.276 99.1021H224.335V83.061H233.951C233.951 83.2878 233.951 83.4011 234.06 83.5145C234.06 83.6279 234.06 83.7412 234.06 83.968C234.06 84.5348 233.951 84.9882 233.627 85.215C233.303 85.4417 232.871 85.6684 232.115 85.6684H227.631V89.6929H232.547V92.2436H227.631V96.7215H232.331V96.6081Z" fill="#0A0A0A"/>
<path d="M244.324 93.8308L241.461 99.2156H238.057L242.649 91.1667L238.597 83.4579C238.922 83.3446 239.246 83.2312 239.57 83.1178C239.894 83.0045 240.218 83.0045 240.542 83.0045C241.407 83.0045 241.947 83.3446 242.379 84.1381L244.54 88.5027L246.809 84.3648C247.133 83.9114 247.35 83.4579 247.674 83.2312C247.998 83.0045 248.43 82.8911 248.862 82.8911C249.186 82.8911 249.511 82.8911 249.727 83.0045C249.943 83.1178 250.267 83.2312 250.483 83.3446L246.215 90.94L250.699 98.9889C250.375 99.1023 250.159 99.2156 249.727 99.2156C249.402 99.329 249.078 99.329 248.862 99.329C248.214 99.329 247.782 99.2156 247.458 98.9889C247.133 98.7622 246.809 98.4221 246.593 97.9686L244.324 93.8308Z" fill="#0A0A0A"/>
<path d="M259.073 85.7251H254.265C254.265 85.4983 254.265 85.385 254.157 85.2716C254.157 85.1582 254.157 85.0449 254.157 84.8181C254.157 84.3647 254.265 84.0246 254.589 83.6845C254.913 83.3444 255.345 83.1177 256.102 83.1177H266.907C266.907 83.4578 267.015 83.7979 267.015 84.138C267.015 84.5914 266.907 84.9315 266.583 85.2716C266.258 85.6117 265.826 85.8384 265.178 85.8384H262.207V99.2722H259.019V85.7251H259.073Z" fill="#0A0A0A"/>
<path d="M271.769 83.0606C271.985 83.0606 272.201 82.9473 272.417 82.9473C272.633 82.9473 272.741 82.9473 272.849 82.9473C273.065 82.9473 273.282 82.9473 273.498 83.0606C273.714 83.0606 273.93 83.174 274.146 83.2874C274.362 83.4007 274.47 83.6275 274.686 83.8542C274.794 84.0809 274.902 84.421 274.902 84.7611V99.2151H271.715L271.769 83.0606Z" fill="#0A0A0A"/>
<path d="M284.141 96.4949H288.625C288.949 96.4949 289.273 96.4949 289.489 96.6083C289.705 96.7217 289.921 96.835 290.029 96.9484C290.137 97.0618 290.245 97.2885 290.354 97.5152C290.354 97.7419 290.462 97.9687 290.462 98.082C290.462 98.1954 290.462 98.4221 290.462 98.6489C290.462 98.8756 290.462 98.989 290.462 98.989H280.953V82.9478C281.169 82.9478 281.385 82.8345 281.601 82.8345C281.818 82.8345 281.926 82.8345 282.034 82.8345C282.25 82.8345 282.466 82.8345 282.682 82.9478C282.898 83.0612 283.114 83.0612 283.33 83.1746C283.546 83.2879 283.654 83.5147 283.87 83.7414C283.979 83.9681 284.087 84.3082 284.087 84.6483V96.4949H284.141Z" fill="#0A0A0A"/>
<path d="M303.59 96.6081C304.346 96.6081 304.779 96.8349 305.103 97.175C305.319 97.515 305.535 97.9685 305.535 98.3086C305.535 98.5353 305.535 98.6487 305.535 98.7621C305.535 98.8754 305.535 98.9888 305.535 99.1021H295.594V83.061H305.211C305.211 83.2878 305.211 83.4011 305.319 83.5145C305.319 83.6279 305.319 83.7412 305.319 83.968C305.319 84.5348 305.211 84.9882 304.887 85.215C304.562 85.4417 304.13 85.6684 303.374 85.6684H298.89V89.6929H303.806V92.2436H298.89V96.7215H303.59V96.6081Z" fill="#0A0A0A"/>
<path d="M310.559 95.4746C310.991 95.8147 311.532 96.1548 312.072 96.4949C312.72 96.835 313.368 97.0617 314.233 97.0617C314.557 97.0617 314.881 97.0617 315.205 96.9483C315.529 96.835 315.746 96.7216 315.962 96.6082C316.178 96.4949 316.394 96.2682 316.502 95.9281C316.61 95.7013 316.718 95.3612 316.718 94.9078C316.718 94.4543 316.61 94.1142 316.502 93.8875C316.286 93.5474 316.07 93.3207 315.854 93.2073C315.529 92.9806 315.313 92.8672 314.881 92.6405C314.557 92.5271 314.125 92.3004 313.801 92.187C313.368 91.9603 312.828 91.8469 312.288 91.6202C311.748 91.3935 311.315 91.1667 310.991 90.8266C310.559 90.4866 310.235 90.0331 310.019 89.5796C309.803 89.0128 309.695 88.446 309.695 87.6524C309.695 86.8589 309.803 86.1787 310.127 85.6119C310.451 85.045 310.775 84.5916 311.315 84.1381C311.856 83.798 312.396 83.4579 313.044 83.2312C313.693 83.0045 314.341 82.8911 315.097 82.8911C315.637 82.8911 316.07 82.8911 316.502 83.0045C316.934 83.1178 317.366 83.2312 317.69 83.3446C318.015 83.4579 318.339 83.5713 318.555 83.6847C318.771 83.798 318.987 83.9114 319.095 84.0248C319.527 84.2515 319.743 84.5916 319.743 85.045C319.743 85.2718 319.635 85.4985 319.527 85.8386C319.419 86.1787 319.095 86.5188 318.879 86.8589C318.447 86.5188 318.015 86.2921 317.366 85.952C316.718 85.6119 316.178 85.4985 315.421 85.4985C315.097 85.4985 314.881 85.4985 314.557 85.6119C314.233 85.6119 314.017 85.7252 313.801 85.952C313.584 86.0653 313.368 86.2921 313.26 86.5188C313.152 86.7455 313.044 87.0856 313.044 87.4257C313.044 87.7658 313.152 87.9925 313.26 88.3326C313.368 88.5593 313.584 88.7861 313.909 89.0128C314.125 89.2395 314.449 89.3529 314.773 89.4663C315.097 89.5796 315.421 89.8064 315.854 89.9197C316.286 90.1465 316.826 90.3732 317.366 90.4865C317.907 90.7133 318.339 90.94 318.771 91.2801C319.203 91.6202 319.527 92.0737 319.743 92.5271C319.96 93.0939 320.176 93.6608 320.176 94.4543C320.176 95.2479 320.068 96.0414 319.743 96.7216C319.419 97.4018 319.095 97.8553 318.555 98.3087C318.015 98.7622 317.474 99.1023 316.718 99.329C315.962 99.5557 315.205 99.6691 314.449 99.6691C313.368 99.6691 312.504 99.5557 311.802 99.329C311.153 99.1023 310.613 98.8755 310.289 98.6488C310.073 98.5354 309.965 98.4221 309.857 98.1954C309.749 97.9686 309.641 97.8553 309.641 97.6285C309.641 97.4018 309.749 97.0617 309.965 96.6082C310.127 96.1548 310.343 95.8147 310.559 95.4746Z" fill="#0A0A0A"/>
<path d="M37.0287 45.9338C37.0287 49.0513 36.7046 51.8854 35.9482 54.7762C35.2999 57.5537 34.2194 59.9343 32.6527 61.9749C31.0859 64.0155 29.141 65.6593 26.8719 66.9063C24.4408 68.0399 21.6315 68.7201 18.2279 68.7201C14.9323 68.7201 12.123 68.1533 9.79991 66.9063C7.47682 65.6593 5.5319 64.0155 4.12724 61.9749C2.61453 59.9343 1.58805 57.497 0.939743 54.7762C0.291438 51.8854 -0.0327148 49.0513 -0.0327148 46.0471C-0.0327148 43.043 0.291438 40.2089 1.04779 37.5448C1.80415 34.7673 2.88466 32.5001 4.55945 30.4595C6.07216 28.4189 8.0711 26.7751 10.4482 25.6415C12.8794 24.3945 15.5806 23.8276 18.8762 23.8276C22.0637 23.8276 24.873 24.3945 27.1961 25.5281C29.4652 26.6618 31.3561 28.3055 32.8688 30.2327C34.2734 32.2733 35.408 34.5973 36.0563 37.2047C36.7046 39.8688 37.0287 42.8162 37.0287 45.9338ZM28.3847 46.0471C28.3847 44.0066 28.2766 42.0227 27.8444 40.2089C27.5203 38.395 26.98 36.7512 26.2236 35.3908C25.4673 34.0305 24.4948 32.8401 23.2522 32.0466C22.0097 31.253 20.4969 30.7996 18.6601 30.7996C16.8232 30.7996 15.1484 31.1397 13.9599 32.0466C12.7713 32.8401 11.6908 33.8604 10.8804 35.2775C10.016 36.6379 9.47576 38.2817 9.15161 40.0955C8.82745 41.9093 8.61135 43.8932 8.61135 45.9338C8.61135 47.9743 8.82745 49.9582 9.15161 51.7721C9.47576 53.6993 10.016 55.3431 10.7724 56.8168C11.5287 58.2906 12.6092 59.4809 13.8518 60.2744C15.1484 61.068 16.7152 61.5214 18.444 61.5214C20.2808 61.5214 21.8476 61.068 23.1442 60.2744C24.4408 59.4809 25.4133 58.2339 26.2236 56.8168C26.98 55.3431 27.5203 53.6993 27.8444 51.7721C28.2766 50.0716 28.3847 48.0877 28.3847 46.0471Z" fill="#0A0A0A"/>
<path d="M65.77 60.7278C67.7149 60.7278 69.0656 61.1813 69.8219 62.0882C70.4702 62.9951 70.9024 64.1288 70.9024 65.2057C70.9024 65.6592 70.9024 66.1127 70.9024 66.3394C70.9024 66.6795 70.9024 67.0196 70.7944 67.3597H44.2139V24.5645H69.6598C69.7679 25.0179 69.8759 25.358 69.8759 25.6981C69.8759 26.0382 69.984 26.3783 69.984 26.8317C69.984 28.3055 69.5518 29.4958 68.9035 30.2894C68.2552 30.9696 66.8505 31.423 64.8516 31.423H52.5878V42.0793H65.6079V48.9379H52.5878V60.8412H65.716V60.7278H65.77Z" fill="#0A0A0A"/>
<path d="M76.3594 24.6215C76.8996 24.5081 77.4399 24.5081 77.9801 24.3947C78.5204 24.3947 78.9526 24.2814 79.1687 24.2814C79.817 24.2814 80.3573 24.2814 81.0056 24.5081C81.6539 24.6215 82.1941 24.8482 82.7344 25.1883C83.2746 25.5284 83.7068 26.0952 84.031 26.662C84.3551 27.3422 84.4632 28.1358 84.4632 29.3261V44.8004C84.5712 43.7801 84.7873 42.8732 85.3276 42.023C85.8679 41.1161 86.4081 40.2091 87.0564 39.2455L95.4844 27.6823C96.4568 26.4353 97.3212 25.5284 98.3477 24.9049C99.3202 24.3381 100.293 24.1113 101.319 24.1113C102.4 24.1113 103.372 24.2247 104.291 24.6782C105.155 25.0182 105.803 25.4717 106.343 26.0385L92.7831 45.0838L107.964 66.6231C106.452 67.7568 104.777 68.2102 103.156 68.2102C100.401 68.2102 98.2397 67.0766 96.6189 64.866L87.6507 52.736C86.8943 51.7157 86.246 50.6954 85.7058 49.3917C85.0575 48.258 84.8414 47.1244 84.7333 45.8207V67.4734H76.4134V24.4514H76.3594V24.6215Z" fill="#0A0A0A"/>
<path d="M145.079 45.9338C145.079 49.0513 144.755 51.8854 143.999 54.7762C143.351 57.5537 142.162 59.9343 140.703 61.9749C139.191 64.0155 137.192 65.6593 134.923 66.9063C132.654 68.0399 129.682 68.7201 126.387 68.7201C123.091 68.7201 120.282 68.1533 117.959 66.9063C115.527 65.6593 113.691 64.0155 112.286 61.9749C110.773 59.9343 109.747 57.497 109.098 54.7762C108.45 51.9988 108.126 49.1647 108.126 46.0471C108.126 43.043 108.45 40.2089 109.206 37.5448C109.963 34.7673 111.043 32.5001 112.61 30.4595C114.123 28.4189 116.122 26.7751 118.499 25.6415C120.93 24.3945 123.631 23.8276 126.927 23.8276C130.114 23.8276 132.924 24.3945 135.247 25.5281C137.516 26.6618 139.515 28.3055 140.919 30.2327C142.432 32.2733 143.459 34.5973 144.215 37.2047C144.755 39.8688 145.079 42.8162 145.079 45.9338ZM136.489 46.0471C136.489 44.0066 136.381 42.0227 136.057 40.2089C135.733 38.395 135.193 36.7512 134.436 35.3908C133.68 34.0305 132.708 32.8401 131.465 32.0466C130.276 31.253 128.71 30.7996 126.981 30.7996C125.144 30.7996 123.469 31.1397 122.281 32.0466C120.984 32.8401 120.012 33.9738 119.093 35.3908C118.337 36.7512 117.688 38.395 117.364 40.2089C117.04 42.0227 116.824 44.0066 116.824 46.0471C116.824 48.0877 117.04 50.0716 117.364 51.8854C117.688 53.8126 118.229 55.4564 118.985 56.9302C119.741 58.4039 120.822 59.5942 122.065 60.3878C123.253 61.1813 124.82 61.6348 126.657 61.6348C128.494 61.6348 130.06 61.1813 131.357 60.3878C132.545 59.5942 133.626 58.3472 134.328 56.9302C135.085 55.4564 135.625 53.8126 135.949 51.8854C136.381 50.0716 136.489 48.0877 136.489 46.0471Z" fill="#0A0A0A"/>
<path d="M156.479 52.9059C153.507 52.9059 152.103 51.5455 152.103 48.8815C152.103 47.9745 152.103 47.0676 152.319 46.104H167.608C168.904 46.104 170.039 46.3307 170.903 46.7842C171.768 47.2377 172.2 48.3713 172.2 50.1285C172.2 50.5819 172.2 51.0354 172.2 51.4888C172.092 51.9423 172.092 52.3958 172.092 52.8492C172.092 52.9059 156.479 52.9059 156.479 52.9059Z" fill="#0A0A0A"/>
<path d="M183.113 31.7065H170.309C170.201 31.1396 170.201 30.7996 170.201 30.4595C170.201 30.1194 170.201 29.7793 170.201 29.2124C170.201 28.0788 170.525 27.0585 171.39 25.9815C172.146 25.0746 173.551 24.5078 175.442 24.5078H204.183C204.291 25.4147 204.399 26.3216 204.399 27.2852C204.399 28.4189 204.075 29.4392 203.319 30.4028C202.562 31.3664 201.266 31.7632 199.375 31.7632H191.595V67.5298H183.059L183.113 31.7065Z" fill="#0A0A0A"/>
<path d="M230.439 60.7278C232.384 60.7278 233.735 61.1813 234.491 62.0882C235.14 62.9951 235.572 64.1288 235.572 65.2057C235.572 65.6592 235.572 66.1127 235.572 66.3394C235.572 66.6795 235.572 67.0196 235.464 67.3597H208.883V24.5645H234.329C234.437 25.0179 234.437 25.4714 234.545 25.8115C234.545 26.1516 234.545 26.4917 234.545 26.9451C234.545 28.4189 234.113 29.6092 233.465 30.4028C232.709 31.0829 231.412 31.5364 229.305 31.5364H217.257V42.2494H230.277V49.1079H217.257V61.0113H230.385V60.7278H230.439Z" fill="#0A0A0A"/>
<path d="M254.481 53.3593L246.701 67.5866H237.517L249.673 46.1607L238.976 25.755C239.84 25.4149 240.705 25.0748 241.623 24.7347C242.487 24.508 243.46 24.3946 244.378 24.3946C246.539 24.3946 248.214 25.4149 249.295 27.5122L255.291 39.0754L261.288 28.1924C262.045 26.832 262.801 25.8117 263.719 25.1882C264.476 24.6213 265.664 24.2812 267.015 24.2812C267.879 24.2812 268.636 24.3946 269.284 24.6213C269.932 24.8481 270.689 25.1882 271.445 25.5283L260.1 45.7072L271.985 67.2465C271.229 67.4733 270.365 67.8133 269.446 67.9267C268.528 68.0401 267.825 68.1535 267.177 68.1535C265.556 68.1535 264.206 67.8134 263.341 67.1332C262.477 66.453 261.72 65.5461 261.072 64.2424L254.481 53.3593Z" fill="#0A0A0A"/>
<path d="M310.343 41.0024C310.343 41.9093 310.235 42.7028 310.019 43.383C309.803 44.0632 309.479 44.7434 309.155 45.1969C308.831 45.7637 308.29 46.1038 307.858 46.5573C307.426 46.8973 306.886 47.1241 306.345 47.3508L311.586 56.5334C311.154 56.6467 310.722 56.8734 310.289 56.9868C309.857 57.1002 309.425 57.1002 308.993 57.1002C308.236 57.1002 307.588 56.8735 307.048 56.5334C306.508 56.1933 306.075 55.6264 305.643 54.8329L302.023 48.4278H300.187V56.8168H295.811V34.824C296.783 34.7106 297.755 34.5973 298.782 34.5973C299.754 34.5973 300.619 34.4839 301.537 34.4839C304.617 34.4839 306.886 35.0507 308.182 36.071C309.587 37.2047 310.343 38.7918 310.343 41.0024ZM305.751 41.4558C305.751 40.0955 305.427 39.0752 304.779 38.565C304.13 37.9982 303.158 37.7715 301.915 37.7715C301.483 37.7715 301.267 37.7715 300.943 37.7715C300.619 37.7715 300.403 37.7715 300.295 37.8848V45.5936H301.807C303.104 45.5936 304.076 45.2535 304.779 44.6867C305.427 43.8365 305.751 42.8162 305.751 41.4558Z" fill="#0A0A0A"/>
<path d="M324.12 46.2741C324.12 58.7442 314.395 69.0037 302.456 69.0037C290.516 69.0037 280.792 58.9143 280.792 46.2741C280.792 33.804 290.516 23.5444 302.456 23.5444C314.395 23.5444 324.12 33.7473 324.12 46.2741ZM302.456 28.8159C293.271 28.8159 285.87 36.6381 285.87 46.2174C285.87 55.7967 293.325 63.6189 302.456 63.6189C311.64 63.6189 319.042 55.7967 319.042 46.2174C319.042 36.6381 311.64 28.8159 302.456 28.8159Z" fill="#0A0A0A"/>
</g>
<defs>
<clipPath id="clip0">
<rect width="324" height="128" fill="white"/>
</clipPath>
</defs>
</svg>
