<svg width="120" height="97" viewBox="0 0 120 97" fill="none" xmlns="http://www.w3.org/2000/svg">
<g opacity="0.6" clip-path="url(#clip0)">
<path d="M3.92866 38.6633C2.07937 35.9477 1.0947 32.7381 1.10358 29.4546C1.10358 27.2905 1.53056 25.1478 2.36022 23.1485C3.18988 21.1492 4.40594 19.3326 5.93895 17.8024C7.47196 16.2722 9.29193 15.0584 11.2949 14.2302C13.2979 13.4021 15.4446 12.9758 17.6126 12.9758" stroke="#1E1E1C" stroke-width="3.27386" stroke-miterlimit="10"/>
<path d="M24.4989 44.3691C22.3399 45.3621 19.99 45.8733 17.6128 45.8672" stroke="#1E1E1C" stroke-width="3.27386" stroke-miterlimit="10"/>
<path d="M55.9057 35.932C55.9057 36.3065 55.9057 36.6811 55.9057 37.0556C55.7205 39.9901 54.7479 42.8208 53.0897 45.2511C51.4316 47.6814 49.1492 49.6217 46.4814 50.8687" stroke="#1E1E1C" stroke-width="3.27386" stroke-miterlimit="10"/>
<path d="M51.1387 24.3882C54.1914 27.4576 55.905 31.607 55.906 35.9321" stroke="#1E1E1C" stroke-width="3.27386" stroke-linecap="round" stroke-linejoin="round" stroke-dasharray="1.96 3.9 1.96 3.9 1.96 3.9"/>
<path d="M43.3916 3.87756C45.9142 5.48855 47.9903 7.70701 49.4289 10.3287C50.8675 12.9504 51.6224 15.8911 51.6241 18.8803C51.6546 21.9087 50.8939 24.8927 49.417 27.5382" stroke="#1E1E1C" stroke-width="3.27386" stroke-miterlimit="10"/>
<path d="M35.0044 1.16786C35.8308 1.1393 36.6568 1.23587 37.4542 1.45426C39.5863 1.89101 41.6207 2.71218 43.4576 3.87756" stroke="#1E1E1C" stroke-width="3.27386" stroke-linecap="round" stroke-linejoin="round" stroke-dasharray="1.96 3.9 1.96 3.9 1.96 3.9"/>
<path d="M15.9795 18.8801C15.9795 18.1972 15.9795 17.5143 16.0898 16.8534C16.3794 14.3414 17.2025 11.92 18.5042 9.75074C19.8058 7.58152 21.5561 5.71432 23.6381 4.27393" stroke="#1E1E1C" stroke-width="3.27386" stroke-miterlimit="10"/>
<path d="M23.6382 4.27426C26.6152 2.20009 30.1604 1.09233 33.7909 1.10187" stroke="#1E1E1C" stroke-width="3.27386" stroke-linecap="round" stroke-linejoin="round" stroke-dasharray="1.96 3.9 1.96 3.9 1.96 3.9"/>
<path d="M20.9233 19.4531C21.2985 15.9722 20.4378 11.5661 28.6482 7.16003" stroke="#1E1E1C" stroke-width="3.27386" stroke-linecap="round" stroke-linejoin="round" stroke-dasharray="1.96 3.9 1.96 3.9 1.96 3.9"/>
<path d="M5.03223 30.5123C5.40743 27.0315 4.56874 22.6253 12.7571 18.2192" stroke="#1E1E1C" stroke-width="3.27386" stroke-linecap="round" stroke-linejoin="round" stroke-dasharray="1.96 3.9 1.96 3.9 1.96 3.9"/>
<path d="M21.4971 38.5972C21.4971 38.5972 9.75525 36.8347 4.08301 41.0866C4.08301 41.0866 11.4327 49.8987 24.6532 44.3471C24.6532 44.3471 24.3442 52.6306 40.6988 54.7455C40.6988 54.7455 34.4086 42.1881 28.4273 40.3816C28.4273 40.3816 37.2557 42.3202 46.3931 33.2878C46.3931 33.2878 34.4748 30.7983 26.2864 36.4822C26.2864 36.4822 24.6974 25.1146 16.6856 24.0571C16.6856 24.0571 14.9199 32.9133 21.4971 38.5972Z" stroke="#1E1E1C" stroke-width="3.27386" stroke-miterlimit="10"/>
<path d="M25.227 41.4396C25.227 41.4396 24.8738 54.9223 16.1558 57.0592" stroke="#1E1E1C" stroke-width="3.27386" stroke-miterlimit="10"/>
<path d="M64.7343 83.87C61.3642 82.0731 58.6174 79.3007 56.8549 75.917C54.4931 71.4268 54.015 66.184 55.5257 61.3419C57.0365 56.4998 60.4124 52.4549 64.9108 50.0973" stroke="#1E1E1C" stroke-width="3.27386" stroke-miterlimit="10"/>
<path d="M88.9903 78.7148C87.3029 80.8921 85.1649 82.6803 82.7222 83.958" stroke="#1E1E1C" stroke-width="3.27386" stroke-miterlimit="10"/>
<path d="M116.667 53.0496C116.866 53.4461 117.065 53.8426 117.241 54.2392C118.63 57.3528 119.158 60.781 118.77 64.1671C118.381 67.5532 117.092 70.7737 115.034 73.4937" stroke="#1E1E1C" stroke-width="3.27386" stroke-miterlimit="10"/>
<path d="M105.632 43.7744C110.39 45.2958 114.355 48.6284 116.667 53.0493" stroke="#1E1E1C" stroke-width="3.27386" stroke-linecap="round" stroke-linejoin="round" stroke-dasharray="2.26 4.52 2.26 4.52 2.26 4.52"/>
<path d="M86.4961 26.855C91.7503 27.3026 96.6348 29.7369 100.151 33.6599C103.667 37.5829 105.548 42.6983 105.411 47.9602" stroke="#1E1E1C" stroke-width="3.27386" stroke-miterlimit="10"/>
<path d="M76.3213 28.6177C77.1673 28.1516 78.0733 27.8033 79.014 27.5824C81.444 26.8935 83.9785 26.6472 86.496 26.8553" stroke="#1E1E1C" stroke-width="3.27386" stroke-linecap="round" stroke-linejoin="round" stroke-dasharray="2.26 4.52 2.26 4.52 2.26 4.52"/>
<path d="M66.4335 57.0145C66.0565 56.3047 65.732 55.5684 65.4623 54.8115C64.3929 52.0746 63.9224 49.141 64.0822 46.2076C64.2421 43.2742 65.0288 40.409 66.3893 37.8041" stroke="#1E1E1C" stroke-width="3.27386" stroke-miterlimit="10"/>
<path d="M66.3896 37.8924C68.3515 34.1164 71.4351 31.0384 75.2181 29.0802" stroke="#1E1E1C" stroke-width="3.27386" stroke-linecap="round" stroke-linejoin="round" stroke-dasharray="2.26 4.52 2.26 4.52 2.26 4.52"/>
<path d="M71.8188 54.9662C70.318 51.177 67.0515 47.1234 73.099 38.157" stroke="#1E1E1C" stroke-width="3.27386" stroke-linecap="round" stroke-linejoin="round" stroke-dasharray="2.26 4.52 2.26 4.52 2.26 4.52"/>
<path d="M61.4899 74.8811C59.989 71.0919 56.7446 67.0163 62.77 58.0719" stroke="#1E1E1C" stroke-width="3.27386" stroke-linecap="round" stroke-linejoin="round" stroke-dasharray="2.26 4.52 2.26 4.52 2.26 4.52"/>
<path d="M82.7442 74.3304C82.7442 74.3304 69.7443 78.7366 66.1909 86.271C66.1909 86.271 78.5286 91.382 89.1006 78.5383C89.1006 78.5383 93.25 87.1962 111.172 80.5871C111.172 80.5871 97.929 71.0699 90.8001 72.4138C90.8001 72.4138 100.975 69.638 105.411 55.4504C105.411 55.4504 91.8153 59.3057 86.4962 69.5498C86.4962 69.5498 78.7052 58.7549 69.8988 61.9493C69.943 61.9934 72.9226 72.0392 82.7442 74.3304Z" stroke="#1E1E1C" stroke-width="3.27386" stroke-miterlimit="10"/>
<path d="M88.1294 75.2117C88.1294 75.2117 95.0376 89.2671 87.2466 96.1406" stroke="#1E1E1C" stroke-width="3.27386" stroke-miterlimit="10"/>
</g>
<defs>
<clipPath id="clip0">
<rect width="120" height="97" fill="white"/>
</clipPath>
</defs>
</svg>
