<svg width="19" height="21" viewBox="0 0 19 21" fill="none" xmlns="http://www.w3.org/2000/svg">
<path d="M9.53169 11.7259C12.4246 11.7259 14.7699 9.38064 14.7699 6.48768C14.7699 3.59472 12.4246 1.24951 9.53169 1.24951C6.63873 1.24951 4.29352 3.59472 4.29352 6.48768C4.29352 9.38064 6.63873 11.7259 9.53169 11.7259Z" stroke="black" stroke-width="2" stroke-linecap="round" stroke-linejoin="round"/>
<path d="M1.61521 19.9996C1.5735 18.9144 1.75124 17.8319 2.13779 16.8169C2.52434 15.802 3.11175 14.8755 3.86482 14.0929C4.61789 13.3103 5.52111 12.6878 6.52047 12.2626C7.51982 11.8373 8.59462 11.6182 9.68068 11.6182C10.7667 11.6182 11.8415 11.8373 12.8409 12.2626C13.8402 12.6878 14.7438 13.3103 15.4968 14.0929C16.2499 14.8755 16.837 15.802 17.2236 16.8169C17.6101 17.8319 17.7879 18.9144 17.7462 19.9996" stroke="black" stroke-width="2" stroke-linecap="round" stroke-linejoin="round"/>
</svg>
