<svg width="81" height="98" viewBox="0 0 81 98" fill="none" xmlns="http://www.w3.org/2000/svg">
<g opacity="0.6" clip-path="url(#clip0)">
<path d="M31.4795 29.2348C31.4795 29.2348 30.5357 6.64773 48.8026 1.40466C48.8026 1.40466 48.4251 15.7705 44.4823 20.5522C43.0771 22.2719 37.834 27.3473 35.7578 27.3473C35.7578 27.3473 38.2955 14.7639 43.3288 11.4293" stroke="black" stroke-width="2.09722" stroke-miterlimit="10"/>
<path d="M25.6282 21.9789C14.5548 13.2754 1.30029 18.5814 1.30029 18.5814C4.94946 29.8226 18.2459 35.7157 26.6768 32.2553C28.3442 31.3585 29.9487 30.3495 31.4794 29.2353" stroke="black" stroke-width="2.09722" stroke-miterlimit="10"/>
<path d="M32.2551 29.109C32.2551 29.109 44.3142 38.8191 32.0245 63.4196C32.0245 63.4196 29.9272 65.391 29.9272 62.5598C29.9272 61.616 41.5458 42.2167 30.2627 29.8221L32.2551 29.109Z" fill="black"/>
<path d="M64.7623 71.9974L23.6147 93.8715C23.6147 93.8715 17.3231 77.7649 14.8484 72.5847C11.6281 66.6074 7.79012 60.9841 3.39746 55.8069L44.545 33.9327L64.7623 71.9974Z" stroke="black" stroke-width="2.09722" stroke-miterlimit="10"/>
<path d="M54.1502 41.9025L59.5191 39.0293L79.3169 76.297L42.0702 96.0948L38.9873 90.3694" stroke="black" stroke-width="2.09722" stroke-miterlimit="10"/>
<path d="M26.6557 85.5037C26.6557 85.5037 22.0208 68.0967 11.9751 56.6459" stroke="black" stroke-width="2.09722" stroke-linecap="round" stroke-linejoin="round" stroke-dasharray="2.1 4.19 2.1 4.19 2.1 4.19"/>
<path d="M55.1572 70.907C55.1572 70.907 41.5253 77.0938 27.7046 85.3359" stroke="black" stroke-width="2.09722" stroke-linecap="round" stroke-linejoin="round" stroke-dasharray="2.1 4.19 2.1 4.19 2.1 4.19"/>
<path d="M70.8861 75.2899C62.2057 79.2734 53.7485 83.726 45.5518 88.6282" stroke="black" stroke-width="2.09722" stroke-linecap="round" stroke-linejoin="round" stroke-dasharray="2.1 4.19 2.1 4.19 2.1 4.19"/>
<path d="M26.5928 56.8348C26.5928 56.8348 27.3688 69.4181 40.7072 61.4486" stroke="black" stroke-width="2.09722" stroke-miterlimit="10"/>
</g>
<defs>
<clipPath id="clip0">
<rect width="80.7432" height="97.5" fill="white"/>
</clipPath>
</defs>
</svg>
