<svg width="109" height="101" viewBox="0 0 109 101" fill="none" xmlns="http://www.w3.org/2000/svg">
<g opacity="0.7" clip-path="url(#clip0)">
<path d="M79.0771 43.9317C72.3705 41.9004 65.538 40.311 58.6234 39.1738C53.1544 38.5996 36.5562 37.8887 36.5562 37.8887L21.7355 45.3537L7.4069 53.2563C7.4069 53.2563 3.87944 54.9516 3.98882 55.5258C10.003 59.3878 16.6483 62.1644 23.6223 63.7292C30.5404 64.4949 51.377 65.2605 51.377 65.2605" stroke="black" stroke-width="2.73446" stroke-miterlimit="10"/>
<path d="M1.77393 61.4594V90.937L50.9122 101L82.8781 81.3116L82.6047 47.4316L51.4044 65.2877" stroke="black" stroke-width="2.73446" stroke-miterlimit="10"/>
<path d="M50.584 65.3154V99.8244" stroke="black" stroke-width="2.73446" stroke-miterlimit="10"/>
<path d="M18.5088 47.1318C18.5088 47.1318 40.1657 47.8156 46.5097 48.8C52.3067 49.7024 69.4791 53.6399 69.4791 53.6399V89.4888" stroke="black" stroke-width="2.73446" stroke-miterlimit="10"/>
<path d="M47.0568 48.7716C47.0568 48.7716 58.2134 32.9664 50.3108 22.302C50.3108 22.302 58.5142 5.70368 41.2597 3.54346C41.2597 3.54346 34.943 13.2235 45.6074 22.6847" stroke="black" stroke-width="2.73446" stroke-miterlimit="10"/>
<path d="M50.4199 22.3023C74.2371 29.6853 78.667 5.0752 78.667 5.0752C78.667 5.0752 75.9325 8.13766 67.401 6.98919C59.5804 5.97743 56.6272 18.5561 56.6272 18.5561C62.1384 18.0776 67.3334 15.7782 71.3932 12.0207" stroke="black" stroke-width="2.73446" stroke-miterlimit="10"/>
</g>
<defs>
<clipPath id="clip0">
<rect width="109" height="101" fill="white"/>
</clipPath>
</defs>
</svg>
