<svg width="24" height="25" viewBox="0 0 24 25" fill="none" xmlns="http://www.w3.org/2000/svg">
<g clip-path="url(#clip0)">
<path d="M19 0.961823H5C2.239 0.961823 0 3.20082 0 5.96182V19.9618C0 22.7228 2.239 24.9618 5 24.9618H19C21.762 24.9618 24 22.7228 24 19.9618V5.96182C24 3.20082 21.762 0.961823 19 0.961823ZM18.861 10.1988C19.07 14.8158 15.627 19.9638 9.531 19.9638C7.677 19.9638 5.952 19.4208 4.499 18.4888C6.241 18.6938 7.979 18.2108 9.359 17.1298C7.922 17.1028 6.71 16.1538 6.293 14.8498C6.808 14.9478 7.314 14.9188 7.775 14.7938C6.196 14.4768 5.107 13.0548 5.142 11.5338C5.584 11.7798 6.091 11.9278 6.628 11.9448C5.167 10.9678 4.753 9.03782 5.612 7.56182C7.231 9.54782 9.65 10.8548 12.378 10.9918C11.899 8.93882 13.458 6.96182 15.577 6.96182C16.52 6.96182 17.374 7.35982 17.972 7.99882C18.72 7.85182 19.423 7.57882 20.058 7.20282C19.812 7.96982 19.292 8.61282 18.615 9.01882C19.279 8.93882 19.912 8.76282 20.5 8.50182C20.061 9.15782 19.504 9.73582 18.861 10.1988Z" fill="black"/>
</g>
<defs>
<clipPath id="clip0">
<rect width="24" height="24" fill="white" transform="translate(0 0.961823)"/>
</clipPath>
</defs>
</svg>
