<svg width="80" height="77" viewBox="0 0 80 77" fill="none" xmlns="http://www.w3.org/2000/svg">
<g opacity="0.3">
<g clip-path="url(#clip0_1337:20844)">
<path d="M49.3705 61.2474C49.3521 61.4969 49.4193 61.8878 49.2941 61.9657C49.0792 62.0978 48.7272 62.1084 48.4622 62.045C47.8637 61.9024 47.2836 61.6831 46.6825 61.4903C46.3766 62.8901 46.3766 62.9007 45.0319 62.943C43.0462 63.0065 41.0728 63.2796 39.1443 63.7577C37.8919 64.0694 36.6316 63.7076 35.4886 63.0975C35.2948 62.9931 35.0759 62.6683 35.1049 62.4847C35.1371 62.3539 35.1995 62.2325 35.2873 62.1304C35.375 62.0283 35.4855 61.9484 35.6099 61.8971C36.0271 61.8078 36.4567 61.7918 36.8794 61.8495C37.321 61.8958 37.7535 62.037 38.319 62.1665C38.12 61.658 37.9987 61.3913 37.5016 61.4626C37.2749 61.4956 36.9348 61.32 36.7911 61.1298C36.7041 61.0136 36.9229 60.6914 36.9493 60.4563C36.9783 60.1275 37.0811 59.664 36.9176 59.4844C36.3152 58.8241 35.6982 58.1942 34.7081 57.9776C33.8024 57.7809 32.9165 57.3358 32.1255 56.8367C31.7419 56.5937 31.4914 56.0034 31.3596 55.5161C31.0335 54.3242 31.1033 53.0583 31.5586 51.9096C31.8223 51.2177 32.1163 50.5362 32.4393 49.8707C32.5524 49.6802 32.7325 49.5389 32.9442 49.4745C33.5058 49.3055 33.6996 48.9238 33.7985 48.3811C33.8473 48.117 34.0621 47.7644 34.2994 47.6653C34.9322 47.4012 35.2341 46.4478 36.1451 46.7489C36.2506 46.7832 36.4206 46.6498 36.5498 46.5745C36.795 46.4319 37.0389 46.2867 37.2683 46.1216C37.368 46.0307 37.4565 45.9283 37.532 45.8165C37.4067 45.7756 37.2485 45.6634 37.1615 45.7043C36.6922 45.9288 36.0924 45.7043 35.6784 46.2457C35.5466 46.4266 34.927 46.3408 34.5842 46.2206C34.4102 46.1612 34.3337 45.7611 34.2612 45.5022C34.2388 45.4217 34.3693 45.2989 34.4735 45.1232L35.0588 45.7716H35.25C35.2618 45.5947 35.3396 45.3874 35.2724 45.2434C35.1169 44.9577 34.9364 44.6864 34.7332 44.4326C34.3377 43.8806 34.3377 43.3669 34.9441 43.1371C36.5854 42.5138 36.9888 40.945 37.7258 39.6429C37.9973 39.1622 38.2531 38.9166 38.8081 38.8902C39.4844 38.8585 40.1475 38.9087 40.8186 38.494C41.363 38.1586 41.5305 37.7334 41.7295 37.2395C41.8917 36.8367 41.9932 36.3864 42.2569 36.051C42.4289 35.8395 42.5518 35.5923 42.6168 35.3274C42.6818 35.0624 42.6872 34.7864 42.6326 34.5191C42.5495 34.0318 42.4506 33.5617 43.0281 33.2764C43.6292 32.9806 44.4479 32.9463 44.8025 33.4204C45.4406 34.2708 46.3344 34.7938 47.0911 35.4844C47.8479 36.1751 48.0522 37.1734 48.1603 38.1744C48.1827 38.3857 48.1827 38.7026 48.3119 38.7845C49.0053 39.248 49.4549 39.8885 49.8214 40.6135C50.2353 41.4323 51.0501 41.9975 51.2452 42.9681C51.323 43.3497 51.6117 43.6429 52.0704 43.3722C53.0196 42.8109 53.9622 42.2365 54.9075 41.6686C54.9984 41.6145 55.0934 41.5656 55.357 41.4217C55.4098 41.8271 55.4335 42.1427 55.4889 42.4517C55.5634 42.8942 55.6727 43.33 55.8158 43.7551C56.1546 44.6716 56.5738 45.5603 56.8705 46.4874C56.9039 46.6456 56.9033 46.8092 56.8688 46.9672C56.8342 47.1253 56.7665 47.2741 56.6701 47.4039C56.0571 48.15 56.2548 48.4867 56.7439 49.2342C57.349 50.1586 57.1289 50.7541 56.0175 50.9034C55.8712 50.9232 55.7248 50.9377 55.5482 50.9588C55.5627 51.1609 55.5864 51.3312 55.5825 51.5029C55.5653 52.1909 55.2832 52.4788 54.6003 52.5593C54.4158 52.5831 54.1771 52.6227 54.073 52.7482C53.605 53.2936 53.2003 53.8958 52.7191 54.4306C52.5424 54.626 52.2194 54.6881 51.8266 54.8783C51.9252 55.0932 52.0453 55.2977 52.1851 55.4884C52.9854 56.4392 52.9682 56.6689 51.9993 57.3636C51.9531 57.3966 51.9347 57.4679 51.9914 57.3702C52.5345 57.7122 53.2279 57.9261 53.5457 58.3962C54.1881 59.329 54.4416 60.4761 54.2523 61.5933C54.2035 61.8786 53.8133 62.2193 53.5101 62.321C52.826 62.5502 52.1185 62.7021 51.4007 62.7739C50.8826 62.8281 50.4542 62.5534 50.205 61.9142L51.3032 62.0054C51.1213 61.6092 51.0395 61.1021 50.8233 61.044C50.3395 60.9119 49.7963 61.0017 49.2769 61.0017L49.3705 61.2474Z" fill="white"/>
<path d="M49.863 9.72108C49.3337 10.5889 48.7778 11.4382 48.275 12.3284C47.8687 13.0496 47.5471 13.8183 47.1554 14.5488C46.544 15.6873 46.5506 16.888 46.7147 18.115C46.7917 18.545 46.8157 18.9829 46.7862 19.4187C46.6909 20.2112 46.6538 20.9443 47.1157 21.6853C47.4611 22.2427 47.4598 22.8595 46.8643 23.4024C46.4924 23.7405 46.3124 24.282 45.9842 24.6822C45.656 25.0825 44.9679 25.4047 44.9811 25.7389C45.0036 26.295 44.9811 26.7467 44.6701 27.1918C43.9661 28.2129 43.1787 29.189 42.5951 30.276C41.9665 31.4423 41.5152 32.7064 41.0309 33.9453C40.9634 34.1197 41.1751 34.3865 41.2042 34.6176C41.3577 35.6864 41.1953 36.7766 40.7371 37.7546C40.2951 38.6911 39.4653 38.7783 38.5774 38.7532C38.2765 38.7255 37.9732 38.7393 37.6761 38.7941C37.5831 38.8318 37.4987 38.8882 37.4284 38.9598C37.3581 39.0313 37.3032 39.1166 37.2672 39.2102C37.0542 39.7821 35.9584 40.3989 35.3589 40.2444C34.7806 40.0952 34.3664 39.1877 34.5239 38.4771C34.8521 37.0083 35.1935 35.5409 35.4622 34.0602C35.5495 33.5768 35.4158 33.0551 35.4105 32.5492C35.4105 32.2071 35.3576 31.8174 35.4952 31.5295C35.8922 30.6974 35.9875 29.7252 36.6625 29.0199C36.7802 28.8971 36.7418 28.6355 36.8212 28.4599C37.0074 28.0376 37.239 27.6368 37.512 27.2645C37.4128 26.9224 37.3162 26.6107 37.8985 26.4918C38.0837 26.4535 38.2597 26.188 38.3722 25.9886C39.8054 23.4605 41.2122 20.9165 42.6573 18.3937C43.274 17.3159 43.9701 16.2804 44.6211 15.2237C44.8052 14.952 44.9248 14.6419 44.9706 14.3171C45.0165 13.9923 44.9875 13.6614 44.8858 13.3494C44.7676 12.9097 44.807 12.4425 44.997 12.0286C45.619 10.7764 46.3481 9.57843 47.0178 8.35004C47.2824 7.85869 47.6795 7.70547 48.1585 7.91152C48.7448 8.16513 49.2953 8.49798 49.8604 8.79649L49.863 9.72108Z" fill="white"/>
<path d="M2.66137 77H1.73662L0.547668 75.1577V74.4965C0.566171 74.4851 0.58344 74.4718 0.599192 74.4568C1.11176 73.8471 1.19764 72.883 2.14748 72.6251C2.25184 72.5973 2.34299 72.3301 2.35224 72.1688C2.40905 71.0949 2.82386 70.0197 2.13294 68.9616C2.04871 68.8401 1.99026 68.7025 1.96123 68.5575C1.9322 68.4124 1.93319 68.263 1.96414 68.1183C1.99509 67.9737 2.05536 67.8369 2.1412 67.7165C2.22704 67.5961 2.33663 67.4945 2.46321 67.4182C3.02334 67.0532 3.55045 66.6353 4.07887 66.2279C4.60729 65.8206 5.13571 65.3775 5.89796 65.7637C6.02082 65.8259 6.23748 65.7637 6.38676 65.7068C7.01823 65.4423 7.33264 64.9464 7.34981 64.2745C7.3683 63.5286 7.73292 63.1464 8.46611 63.0221C9.22572 62.8898 9.23629 62.1439 9.60618 61.6903L9.42652 61.5408L8.42648 62.6981C8.33929 62.3463 8.35382 62.1042 8.2521 62.0368C7.59157 61.6017 7.81615 60.9364 7.93505 60.4312C8.31023 58.827 8.76863 57.2386 9.28252 55.6701C9.42388 55.2376 9.3314 55.0458 9.05398 54.7919C8.87167 54.6239 8.61143 54.4123 8.59954 54.2073C8.54669 53.2816 8.5599 52.3558 9.39217 51.6945C9.60354 51.5239 9.68544 51.1959 9.89285 51.0161C10.3909 50.5876 10.881 50.0982 11.4649 49.839C11.8282 49.679 12.3566 49.8919 12.8098 49.9421C12.8454 49.9421 12.8705 50.0083 12.9088 50.0228C13.8336 50.3759 14.7478 50.7582 15.6831 51.0518C15.9341 51.1298 16.2749 50.9512 16.5655 50.8653C16.8562 50.7793 17.1362 50.6325 17.4321 50.5611C18.0319 50.4156 18.6211 50.1643 19.2473 50.5915C19.4217 50.7092 19.8352 50.5055 20.1245 50.4077C20.4138 50.3098 20.6846 50.1233 20.9805 50.0453C22.2038 49.7239 23.5553 50.0162 24.6953 49.2121C24.9358 49.0415 25.4259 49.1195 25.7628 49.2121C26.1511 49.3245 26.4907 49.5983 26.8645 49.7742C27.2965 49.9779 27.3137 50.2754 27.3005 50.7317C27.2384 52.7367 27.3163 54.7324 28.8686 56.2864C29.4538 56.8723 29.5357 57.6089 29.1619 58.2173C28.4882 59.3366 27.7167 60.3939 26.8566 61.3768C25.2898 63.1411 23.6292 64.8155 22.0004 66.5268C21.4151 67.1405 20.8114 67.733 20.213 68.34C19.8167 68.7368 19.4415 69.1587 19.0478 69.5594C18.7136 69.8993 18.4124 70.3159 18.0081 70.5275C17.7571 70.6598 17.341 70.4706 16.9988 70.4257C17.1243 70.1387 17.1983 69.8107 17.3872 69.5753C17.5761 69.3399 17.9302 69.2579 18.1046 69.0278C18.2208 68.8743 18.1495 68.5781 18.1627 68.3466C17.8205 68.3572 17.4625 68.3109 17.1442 68.4035C17.0028 68.4432 16.8509 68.7672 16.8614 68.9537C16.8984 69.5449 16.6131 69.8795 16.1402 70.1638C15.2405 70.6928 14.3765 71.2986 13.4663 71.8143C12.8864 72.1423 12.2391 72.3434 11.638 72.6462C11.0726 72.9253 10.3592 72.9597 10.0342 73.6514C9.63789 74.4912 9.47276 74.548 8.55462 74.3893C7.87692 74.2716 7.26262 74.1923 6.85706 75.0347C6.57303 75.6259 5.96138 75.979 5.2097 75.8891C4.16342 75.7687 3.28887 76.1047 2.66137 77Z" fill="white"/>
<path d="M68.7965 55.3012H68.5325L68.0255 54.6121L68.712 54.2689C68.7041 53.6167 68.514 53.0688 67.7523 52.8708C67.5441 52.8028 67.3487 52.7007 67.1741 52.5685C65.9609 51.7513 64.7437 50.9394 63.5464 50.0984C62.9057 49.6404 62.148 49.3739 61.3616 49.3301C60.9379 49.2997 60.4032 49.1387 60.1867 49.4436C59.6587 50.1909 59.1135 49.9466 58.4706 49.7262C57.9425 49.5453 57.6679 49.3473 57.9953 48.9341C57.6954 48.6642 57.3808 48.4112 57.0528 48.1763C56.4442 47.7802 56.3425 47.4885 56.7887 46.9881C57.2798 46.4297 57.2191 45.8686 56.9867 45.227C56.5722 44.0837 56.167 42.9339 55.8607 41.7589C55.7564 41.3549 55.8264 40.8348 55.3723 40.7371C55.1082 40.6817 54.7452 41.0011 54.4482 41.1939C53.6007 41.7497 52.7663 42.324 51.7815 42.9893C51.5822 42.4177 51.4938 42.0177 51.3076 41.6692C51.1215 41.3206 50.8179 41.0091 50.5842 40.6698C50.2938 40.25 50.035 39.8064 49.7367 39.3919C49.4885 39.0486 49.2086 38.7318 48.9327 38.4057C48.7598 38.1971 48.4945 38.0096 48.4285 37.776C48.2813 37.2482 48.1927 36.7059 48.1644 36.1588C48.1222 35.2505 47.7525 34.5878 46.9605 34.1217C46.5552 33.8841 46.113 33.6108 45.8555 33.2372C45.2179 32.3131 44.4971 31.9619 43.3671 32.1534C43.1401 32.1916 42.8919 32.1072 42.653 32.0794C42.7044 31.7943 42.6767 31.4589 42.8219 31.2358C43.0569 30.8781 43.4252 30.6114 43.7024 30.2774C44.6991 29.0734 45.3565 27.6001 46.6304 26.6166C46.6502 26.602 46.6304 26.5387 46.6304 26.4977L46.4549 26.5413C46.3717 26.235 46.1354 25.8456 46.245 25.6436C46.377 25.3954 46.9354 25.0931 47.0793 25.1829C47.5756 25.4931 47.8053 25.2053 48.0852 24.9188C48.6872 24.3155 49.2733 23.6897 49.8911 23.1089C50.4086 22.6244 50.6 22.6719 51.0304 23.295C51.1109 23.2356 51.1888 23.13 51.2759 23.1207C51.672 23.0798 52.3135 23.8336 52.303 24.2429C52.303 24.4383 52.3624 24.7182 52.4984 24.8158C52.798 25.0324 52.9248 25.2409 52.9142 25.6264C52.9142 25.7703 53.2772 25.9248 53.4752 26.0753C53.6165 25.9074 53.7415 25.7267 53.8488 25.5353C53.9201 25.3756 53.8871 25.0271 53.936 25.0205C54.4838 24.9465 55.0937 24.7564 55.5782 24.9254C56.2382 25.1499 56.8165 25.6423 57.4158 26.041C57.5543 26.1388 57.659 26.2771 57.7155 26.437C57.8105 26.7248 57.8475 27.0298 57.9385 27.4535L56.9894 27.3809C57.8052 28.9005 58.5286 28.9981 59.5993 27.674C58.7055 27.4007 58.5432 26.7869 58.7333 25.9499C58.8257 25.5538 58.7491 25.1208 58.7491 24.6799C58.6097 24.701 58.4678 24.6983 58.3293 24.6719C58.0824 24.5665 57.8418 24.4471 57.6085 24.3142C57.7376 24.1165 57.8544 23.911 57.9583 23.699C58.0442 23.4917 58.0521 23.2528 58.1418 23.0481C58.2316 22.8435 58.3557 22.5135 58.5247 22.4673C59.0607 22.3207 59.6257 22.2811 60.3583 22.1729C60.46 22.5121 60.6052 23.0006 60.7953 23.6422C61.1266 23.1551 61.5121 22.8501 61.4804 22.5861C61.3775 21.7491 62.1827 21.8019 62.5141 21.4111C62.5959 21.3134 63.0421 21.3596 63.1596 21.4877C63.4487 21.7979 63.7523 21.8521 64.1484 21.8428C64.5444 21.8336 65.0104 21.8428 65.3748 22.0052C65.7391 22.1676 66.1563 22.4646 66.2988 22.8079C66.6025 23.5234 67.1186 23.1696 67.5635 23.2039C67.9595 23.2356 68.1681 23.0838 68.1919 22.6521C68.2183 22.1491 68.6592 21.9115 68.9325 22.2732C69.2915 22.7511 69.4764 23.365 69.6981 23.9353C69.7932 24.1782 69.7589 24.4713 69.846 24.7182C70.0031 25.1697 70.242 25.5947 70.3846 26.0476C70.4714 26.3501 70.6217 26.6307 70.8254 26.8706C71.0292 27.1105 71.2816 27.3043 71.5661 27.439C71.6496 27.1565 71.7132 26.8684 71.7562 26.577C71.7799 26.2786 71.6889 25.967 71.7364 25.6766C71.8961 24.6865 72.337 24.5069 73.174 25.1261C73.9832 25.7228 74.7713 26.3552 75.5185 27.0271C76.8505 28.2272 78.1429 29.4681 79.4524 30.6919V31.616C79.401 31.8893 79.3336 32.16 79.3006 32.4346C79.1686 33.5382 78.8201 34.5363 77.7469 35.0525C76.968 35.4274 76.1403 35.6993 75.3641 36.0069C75.4881 37.3073 75.6571 38.6658 75.7363 40.0295C75.7971 41.0724 75.7535 42.122 75.7363 43.1689C75.7518 43.4311 75.714 43.6938 75.6254 43.9412C75.0631 45.1597 75.4644 46.361 75.6254 47.5743C75.6624 47.8608 75.6043 48.2344 75.4327 48.4509C75.2122 48.7149 74.8413 48.8773 74.5205 49.0542C73.97 49.3605 73.3628 49.5823 73.3403 50.3849C73.3403 50.5631 73.1423 50.781 72.976 50.9011C72.1615 51.4859 71.343 52.0721 70.4915 52.6002C69.9635 52.9289 69.6308 53.189 69.9001 53.9283C70.2552 54.8986 70.1166 55.0134 69.0948 55.1785C68.9912 55.2084 68.8911 55.2495 68.7965 55.3012V55.3012Z" fill="white"/>
<path d="M47.4552 25.1679C47.4393 25.127 47.4354 25.0742 47.4063 25.0479C47.1715 24.8356 46.6993 24.5639 46.7362 24.4321C46.8536 24.0114 47.1729 23.6515 47.3866 23.2532C47.6089 22.8474 47.8088 22.4296 47.9854 22.0019C48.1938 21.485 48.1688 21.0077 47.7506 20.5514C47.595 20.3827 47.5475 20.0622 47.5462 19.8104C47.5383 18.1845 47.5554 16.5574 47.5699 14.9315C47.5661 14.804 47.5913 14.6773 47.6438 14.561C48.2493 13.3822 48.8495 12.1994 49.4813 11.0338C49.7702 10.5063 50.1646 10.0277 50.439 9.491C50.9033 8.58776 50.4931 7.72275 49.5156 7.45244C48.5751 7.18872 48.492 6.95401 48.8204 6.04549C49.3481 4.59503 49.8177 3.11951 50.2899 1.64795C50.3596 1.37332 50.3845 1.08925 50.3638 0.806682C50.3466 -0.0398605 50.5524 -0.183588 51.3228 0.2054C52.3556 0.732841 53.3674 1.29193 54.4082 1.79959C55.2102 2.19517 56.0373 2.53933 56.8643 2.87953C57.4236 3.10896 57.8484 2.97446 58.008 2.32703C58.0964 1.96573 58.3338 1.89585 58.6544 2.0132C58.9749 2.13056 59.273 2.23077 59.5777 2.36395C60.4892 2.7714 60.538 2.84261 60.3006 3.79991C60.1964 4.22318 60.3296 4.48558 60.6963 4.65173C61.0921 4.83501 61.5023 4.98665 61.9587 5.17258C62.1381 4.55283 62.5365 4.68074 62.9718 4.84029C64.159 5.27543 65.3462 5.68419 66.5334 6.12461C66.7141 6.19186 66.8566 6.36459 67.0782 6.53601C66.8579 6.68501 66.6824 6.74962 66.5875 6.87621C66.354 7.18344 66.0374 7.49595 65.9662 7.84934C65.7894 8.72885 65.5863 8.93718 64.7566 8.78555C64.8331 9.37364 65.0679 9.50286 65.5032 9.19958C65.9385 8.89631 66.2287 8.55743 66.2656 7.97988C66.2742 7.85916 66.3085 7.74168 66.3662 7.63531C66.4239 7.52895 66.5038 7.43618 66.6004 7.36323C66.697 7.29028 66.8081 7.23885 66.9262 7.21239C67.0444 7.18592 67.1668 7.18505 67.2853 7.20981C67.8235 7.32321 67.991 7.78341 67.7074 8.36887C68.3749 9.00575 68.3208 9.18904 67.4436 9.53979C67.247 9.61758 67.0821 9.85757 66.9753 10.0606C66.7735 10.459 66.5921 10.8675 66.4318 11.2843C66.2779 11.6116 66.1573 11.9535 66.0717 12.3049C66.0044 12.6715 65.9266 12.9325 65.4781 12.9088C64.8739 12.8758 64.4347 12.5686 64.4466 12.1361C64.4466 11.8974 64.5468 11.6495 64.5086 11.4228C64.4598 11.1393 64.3621 10.6738 64.2012 10.6316C63.4968 10.4589 63.5272 9.9446 63.4797 9.42638C63.4665 9.28661 63.4203 9.07168 63.328 9.0308C62.6552 8.7328 62.8729 8.23964 63.014 7.75703C63.113 7.41815 63.2079 7.07795 63.3412 6.60853C62.4402 7.37068 62.4178 8.59566 62.9243 9.4343C63.4314 10.2729 63.6741 11.2447 63.6208 12.2231C63.5483 13.4099 63.4388 14.5966 63.452 15.7834C63.452 16.2726 63.7395 16.7578 63.8991 17.251C64.6774 17.1191 64.651 17.1191 64.7935 17.9881C64.8265 18.1898 65.089 18.3652 65.267 18.53C65.5493 18.7871 66.0585 18.9586 65.5309 19.4794C65.9583 19.7431 66.4041 19.9778 66.7893 20.2864C66.9568 20.4183 66.999 20.7097 67.0966 20.9286C66.8658 20.9286 66.6046 21.009 66.4068 20.9286C65.8578 20.7225 65.3303 20.4632 64.8318 20.1545C63.8081 19.4794 62.7515 19.726 61.7978 20.049C61.4865 20.3813 61.2029 20.7505 60.8441 21.0195C60.7584 21.0841 60.2584 20.8481 60.2307 20.6991C60.0803 19.8803 59.8007 19.0812 60.1727 18.1938C60.3494 17.7771 60.1067 17.1837 60.0407 16.5904C59.9613 16.6407 59.8859 16.6971 59.8152 16.7591C60.0935 17.4976 59.5857 18.1595 59.6015 18.8755C59.6015 19.1089 59.459 19.3462 59.3825 19.5809C59.1583 19.49 58.9301 19.4082 58.7124 19.3054C58.5585 19.2069 58.3876 19.1381 58.2085 19.1023C58.4064 19.4372 58.6346 19.7616 58.7968 20.1084C59.2071 21.0024 58.9076 21.4349 57.9632 21.4956C57.2179 21.5443 57.2957 21.038 57.3643 20.6477C57.4619 20.082 57.4817 19.7814 56.7351 19.8565C56.4831 19.8803 56.127 19.5031 55.9265 19.2302C55.5769 18.7542 55.2049 18.4483 54.4754 18.6236C54.9345 19.0047 55.3276 19.3317 55.722 19.6561C56.309 20.14 56.3275 20.9642 55.7391 21.394C55.5967 21.4816 55.4313 21.5243 55.2643 21.5166C54.9424 21.5087 54.6205 21.452 54.2974 21.427C53.9293 21.3993 53.6708 21.3465 53.4083 20.9523C53.217 20.6648 52.5614 20.5686 52.1235 20.591C51.8266 20.604 51.539 20.6978 51.2916 20.8624C51.0443 21.0269 50.8466 21.2559 50.72 21.5246C50.559 21.8331 50.2675 22.0744 50.001 22.3157C49.5407 23.4405 48.6621 24.2791 47.843 25.1613L47.4552 25.1679Z" fill="white"/>
<path d="M68.4885 12.2447C68.4552 12.3127 68.4008 12.5705 68.3014 12.5895C68.1538 12.6174 67.9416 12.5127 67.8144 12.3998C67.4614 12.0855 67.3879 11.5515 67.5954 11.1318C67.7029 10.9135 67.8273 10.889 68.009 11.0604C68.3205 11.3549 68.4708 11.7141 68.4885 12.2447Z" fill="white"/>
<path d="M68.8064 11.3542C68.8064 10.9317 69.0363 10.7365 69.3567 10.8447C69.6287 10.9365 69.6553 11.0732 69.5104 11.3208C69.4213 11.4752 69.4186 11.6766 69.3499 11.8459C69.3009 11.967 69.207 12.0697 69.1329 12.1813C69.0499 12.0772 68.9288 11.9847 68.8921 11.8657C68.8322 11.6909 68.8275 11.495 68.8064 11.3542Z" fill="white"/>
<path d="M51.4533 21.2409C51.4533 21.2409 51.2656 21.9791 51.905 22.1343C52.5444 22.2894 52.5057 21.9791 52.3555 21.5512C52.2054 21.1233 51.6035 20.6204 51.4533 21.2409Z" fill="white"/>
<path d="M53.0432 22.1629C52.6715 22.6272 52.922 22.562 52.8421 23.0422C52.7621 23.5224 52.7221 23.8403 53.0832 24.1209C53.4442 24.4016 54.6032 24.52 54.8031 24.4801C55.0029 24.4402 55.8835 23.96 55.6836 23.6008C55.4838 23.2417 54.9629 22.6817 54.6032 22.8027C54.2435 22.9238 54.2835 22.9238 54.0424 22.4835C53.8012 22.0432 53.3629 21.7639 53.0432 22.1629Z" fill="white"/>
</g>
<rect x="1.54767" y="1" width="76.9047" height="75" rx="37.5" stroke="white" stroke-width="2"/>
</g>
<defs>
<clipPath id="clip0_1337:20844">
</clipPath>
</defs>
</svg>
