<svg width="409" height="524" viewBox="0 0 409 524" fill="none" xmlns="http://www.w3.org/2000/svg">
<mask id="mask0" style="mask-type:alpha" maskUnits="userSpaceOnUse" x="0" y="0" width="409" height="524">
<g clip-path="url(#clip0)">
<path d="M115.824 89.2689H43.1724V154.165H10.3064V0H43.1004V60.4259H115.752V0H148.69V153.877H115.752L115.824 89.2689Z" fill="white"/>
<path d="M248.153 139.816C243.166 145.218 237.097 149.506 230.34 152.401C223.584 155.296 216.294 156.733 208.945 156.617C184.511 156.617 172.907 143.277 172.907 121.573V42.2549H202.17V109.892C202.17 125.323 210.242 130.442 222.711 130.442C227.618 130.351 232.442 129.165 236.831 126.969C241.221 124.773 245.064 121.624 248.081 117.751V42.3991H277.344V153.877H248.153V139.816Z" fill="white"/>
<path d="M352.229 39.6588C385.456 39.6588 408.015 64.608 408.015 101.022V107.512H325.273C326.299 115.091 330.187 121.99 336.139 126.79C342.09 131.591 349.653 133.93 357.274 133.326C368.198 133.339 378.762 129.423 387.041 122.294L399.943 141.186C387.019 151.685 370.742 157.164 354.103 156.617C320.156 156.617 294.569 133.831 294.569 98.0658C294.344 90.3955 295.676 82.7592 298.485 75.6187C301.293 68.4781 305.52 61.9816 310.91 56.5219C316.3 51.0623 322.741 46.753 329.843 43.8546C336.944 40.9561 344.56 39.5288 352.229 39.6588ZM324.769 87.8266H379.69C379.553 84.3843 378.728 81.0044 377.265 77.8858C375.802 74.7673 373.73 71.9732 371.171 69.6683C368.612 67.3634 365.618 65.5942 362.365 64.4651C359.111 63.336 355.665 62.8697 352.229 63.0937C345.355 62.9065 338.671 65.3691 333.561 69.9722C328.45 74.5754 325.302 80.9673 324.769 87.8266Z" fill="white"/>
<path d="M10.3064 184.234H70.9933C119.211 184.234 152.582 214.952 152.582 261.317C152.582 307.682 119.211 338.183 70.9933 338.183H10.3064V184.234ZM70.9933 309.34C77.3882 309.647 83.7768 308.617 89.7512 306.315C95.7257 304.013 101.155 300.49 105.692 295.971C110.229 291.452 113.775 286.036 116.103 280.069C118.43 274.103 119.489 267.716 119.211 261.317C119.211 234.06 102.562 213.077 70.9933 213.077H43.1004V309.34H70.9933Z" fill="white"/>
<path d="M167.214 192.815C167.2 189.332 168.219 185.924 170.142 183.021C172.066 180.118 174.808 177.852 178.02 176.509C181.232 175.166 184.77 174.807 188.186 175.478C191.603 176.149 194.743 177.819 197.21 180.277C199.676 182.734 201.358 185.869 202.043 189.284C202.727 192.699 202.383 196.24 201.054 199.459C199.725 202.678 197.471 205.43 194.578 207.367C191.684 209.303 188.281 210.337 184.8 210.337C180.154 210.318 175.703 208.469 172.411 205.189C169.119 201.909 167.252 197.463 167.214 192.815ZM170.241 226.706H199.503V338.184H170.241V226.706Z" fill="white"/>
<path d="M207.647 226.705H239L267.83 304.221L296.659 226.705H328.228L284.191 338.183H252.55L207.647 226.705Z" fill="white"/>
<path d="M333.778 192.815C333.816 188.18 335.673 183.745 338.949 180.467C342.226 177.189 346.659 175.331 351.292 175.293C355.937 175.293 360.392 177.139 363.676 180.425C366.961 183.711 368.806 188.168 368.806 192.815C368.806 197.462 366.961 201.919 363.676 205.205C360.392 208.491 355.937 210.337 351.292 210.337C346.659 210.3 342.226 208.441 338.949 205.163C335.673 201.886 333.816 197.451 333.778 192.815ZM336.805 226.706H366.067V338.184H336.805V226.706Z" fill="white"/>
<path d="M12.6851 485.931C23.4841 495.161 37.0559 500.516 51.245 501.146C63.9301 501.146 69.9124 496.82 69.9124 489.897C69.9124 482.975 60.1823 479.225 47.4972 476.702C28.3974 473.024 3.67573 468.409 3.67573 441.874C3.67573 423.198 20.1087 406.83 49.3711 406.83C65.6618 406.599 81.538 411.97 94.3457 422.044L82.3813 442.09C73.4751 433.655 61.6338 429.025 49.3711 429.183C38.7761 429.183 31.8569 433.149 31.8569 439.566C31.8569 445.984 40.65 449.012 53.0468 451.608C72.2187 455.286 97.8053 460.333 97.8053 488.023C97.8053 508.357 80.5073 524.076 49.5873 524.076C31.4422 524.512 13.7523 518.365 -0.216309 506.77L12.6851 485.931Z" fill="white"/>
<path d="M111.644 375.679C111.63 372.193 112.651 368.782 114.578 365.877C116.505 362.973 119.251 360.707 122.467 359.366C125.683 358.025 129.225 357.671 132.643 358.347C136.061 359.024 139.202 360.701 141.665 363.166C144.129 365.631 145.806 368.773 146.482 372.192C147.158 375.612 146.804 379.155 145.464 382.373C144.124 385.591 141.858 388.338 138.955 390.266C136.052 392.194 132.642 393.215 129.158 393.201C124.525 393.163 120.092 391.305 116.815 388.027C113.539 384.749 111.682 380.315 111.644 375.679ZM114.671 409.569H143.933V521.048H114.671V409.569Z" fill="white"/>
<path d="M160.798 465.165C160.727 453.477 164.128 442.033 170.569 432.282C177.01 422.532 186.201 414.916 196.976 410.4C207.751 405.885 219.624 404.674 231.088 406.921C242.552 409.167 253.091 414.771 261.367 423.02C269.642 431.269 275.282 441.791 277.57 453.252C279.858 464.713 278.691 476.596 274.217 487.392C269.744 498.189 262.165 507.412 252.443 513.892C242.721 520.372 231.293 523.816 219.611 523.788C211.814 524.134 204.03 522.856 196.753 520.035C189.475 517.214 182.862 512.912 177.334 507.401C171.805 501.89 167.48 495.29 164.634 488.02C161.787 480.749 160.481 472.966 160.798 465.165ZM248.225 465.165C248.225 447.859 237.846 432.861 219.395 432.861C200.944 432.861 190.998 447.859 190.998 465.165C190.998 482.47 201.16 497.685 219.395 497.685C237.63 497.685 248.153 482.687 248.153 465.165H248.225Z" fill="white"/>
<path d="M370.68 453.627C370.68 438.196 362.608 432.86 350.139 432.86C345.173 432.919 340.29 434.143 335.883 436.435C331.476 438.727 327.669 442.023 324.769 446.056V521.048H295.506V409.57H324.769V423.991C329.626 418.452 335.629 414.035 342.362 411.046C349.095 408.058 356.396 406.57 363.761 406.685C388.194 406.685 399.798 420.53 399.798 442.234V520.903H370.68V453.627Z" fill="white"/>
</g>
</mask>
<g mask="url(#mask0)">
<rect x="-659.793" y="-241.661" width="1700.62" height="1067.81" fill="white"/>
</g>
<defs>
<clipPath id="clip0">
<rect width="408.015" height="523.788" fill="white"/>
</clipPath>
</defs>
</svg>
