<svg width="80" height="103" viewBox="0 0 80 103" fill="none" xmlns="http://www.w3.org/2000/svg">
<g clip-path="url(#clip0)">
<path d="M22.7096 17.5542H8.46478V30.3158H2.02069V0H8.45066V11.8824H22.6955V0H29.1537V30.2591H22.6955L22.7096 17.5542Z" fill="black"/>
<path d="M48.6557 27.494C47.6779 28.5562 46.4878 29.3995 45.1631 29.9688C43.8384 30.5381 42.4089 30.8205 40.968 30.7978C36.1773 30.7978 33.9021 28.1746 33.9021 23.9065V8.30908H39.6396V21.6095C39.6396 24.6439 41.2224 25.6506 43.6672 25.6506C44.6292 25.6328 45.5751 25.3994 46.4358 24.9676C47.2964 24.5358 48.0501 23.9166 48.6416 23.155V8.33744H54.379V30.259H48.6557V27.494Z" fill="black"/>
<path d="M69.0621 7.79897C75.5768 7.79897 80 12.7051 80 19.8657V21.1419H63.7768C63.978 22.6323 64.7403 23.9889 65.9072 24.9329C67.0741 25.877 68.557 26.3369 70.0513 26.2182C72.1931 26.2206 74.2644 25.4506 75.8877 24.0487L78.4173 27.7637C75.8833 29.8282 72.6918 30.9057 69.4295 30.7981C62.7734 30.7981 57.7566 26.3174 57.7566 19.2844C57.7125 17.7761 57.9736 16.2744 58.5243 14.8703C59.075 13.4661 59.9038 12.1886 60.9606 11.115C62.0174 10.0414 63.2802 9.19399 64.6727 8.62403C66.0652 8.05407 67.5584 7.77339 69.0621 7.79897ZM63.6778 17.2709H74.4463C74.4194 16.594 74.2578 15.9293 73.9709 15.3161C73.6841 14.7028 73.2778 14.1534 72.776 13.7002C72.2743 13.2469 71.6872 12.899 71.0493 12.677C70.4115 12.4549 69.7358 12.3633 69.0621 12.4073C67.7142 12.3705 66.4038 12.8547 65.4017 13.7599C64.3996 14.6651 63.7825 15.9221 63.6778 17.2709Z" fill="black"/>
<path d="M2.02069 36.2285H13.9196C23.3738 36.2285 29.9168 42.269 29.9168 51.3864C29.9168 60.5039 23.3738 66.5018 13.9196 66.5018H2.02069V36.2285ZM13.9196 60.83C15.1735 60.8903 16.4261 60.6877 17.5975 60.235C18.769 59.7823 19.8334 59.0896 20.7231 58.2009C21.6127 57.3123 22.3079 56.2473 22.7643 55.074C23.2207 53.9007 23.4283 52.6448 23.3738 51.3864C23.3738 46.0266 20.1094 41.9003 13.9196 41.9003H8.45065V60.83H13.9196Z" fill="black"/>
<path d="M32.7857 37.9159C32.7829 37.231 32.9827 36.5607 33.3599 35.9899C33.7371 35.419 34.2746 34.9734 34.9044 34.7093C35.5343 34.4453 36.228 34.3748 36.8978 34.5067C37.5676 34.6385 38.1834 34.9669 38.667 35.4502C39.1506 35.9335 39.4804 36.55 39.6146 37.2215C39.7488 37.893 39.6814 38.5894 39.4208 39.2224C39.1603 39.8554 38.7183 40.3966 38.151 40.7774C37.5836 41.1582 36.9164 41.3615 36.2338 41.3615C35.3229 41.3578 34.4501 40.994 33.8047 40.3491C33.1592 39.7041 32.7931 38.8299 32.7857 37.9159ZM33.3792 44.5802H39.1167V66.5018H33.3792V44.5802Z" fill="black"/>
<path d="M40.7136 44.5806H46.8609L52.5136 59.8235L58.1663 44.5806H64.356L55.7215 66.5021H49.5177L40.7136 44.5806Z" fill="black"/>
<path d="M65.4442 37.9158C65.4516 37.0043 65.8158 36.1322 66.4582 35.4876C67.1006 34.843 67.9698 34.4776 68.8782 34.4702C69.789 34.4702 70.6625 34.8332 71.3065 35.4794C71.9505 36.1256 72.3123 37.002 72.3123 37.9158C72.3123 38.8297 71.9505 39.7061 71.3065 40.3523C70.6625 40.9984 69.789 41.3615 68.8782 41.3615C67.9698 41.354 67.1006 40.9886 66.4582 40.3441C65.8158 39.6995 65.4516 38.8274 65.4442 37.9158ZM66.0377 44.5802H71.7752V66.5017H66.0377V44.5802Z" fill="black"/>
<path d="M2.48705 95.5558C4.60442 97.3708 7.26546 98.4238 10.0475 98.5477C12.5347 98.5477 13.7077 97.6969 13.7077 96.3357C13.7077 94.9745 11.7999 94.2371 9.3127 93.7408C5.56778 93.0177 0.720576 92.1102 0.720576 86.8922C0.720576 83.2197 3.94262 80.0009 9.68012 80.0009C12.8743 79.9556 15.9871 81.0117 18.4984 82.9928L16.1525 86.9347C14.4062 85.2761 12.0845 84.3656 9.68012 84.3965C7.60275 84.3965 6.2461 85.1764 6.2461 86.4384C6.2461 87.7004 7.97017 88.2959 10.4008 88.8064C14.1599 89.5295 19.1767 90.5221 19.1767 95.967C19.1767 99.9657 15.785 103.057 9.72251 103.057C6.16478 103.142 2.6963 101.934 -0.0425415 99.6537L2.48705 95.5558Z" fill="black"/>
<path d="M21.8902 73.8753C21.8874 73.1898 22.0876 72.519 22.4655 71.9478C22.8433 71.3767 23.3817 70.9311 24.0123 70.6674C24.6429 70.4038 25.3374 70.3341 26.0076 70.4672C26.6778 70.6002 27.2935 70.93 27.7766 71.4147C28.2597 71.8994 28.5884 72.5172 28.7209 73.1897C28.8535 73.8621 28.7841 74.5589 28.5213 75.1917C28.2586 75.8245 27.8144 76.3647 27.2452 76.7438C26.676 77.1229 26.0074 77.3238 25.3243 77.321C24.4158 77.3135 23.5466 76.9481 22.9042 76.3036C22.2618 75.659 21.8976 74.7869 21.8902 73.8753ZM22.4838 80.5397H28.2213V102.461H22.4838V80.5397Z" fill="black"/>
<path d="M31.528 91.472C31.514 89.1738 32.1808 86.9232 33.4437 85.0058C34.7066 83.0885 36.5087 81.5908 38.6214 80.7029C40.734 79.815 43.062 79.5768 45.3098 80.0186C47.5576 80.4604 49.6239 81.5623 51.2465 83.1844C52.8691 84.8065 53.9749 86.8757 54.4235 89.1295C54.8721 91.3832 54.6433 93.7199 53.7661 95.8429C52.889 97.966 51.403 99.7797 49.4968 101.054C47.5906 102.328 45.35 103.005 43.0595 103C41.5307 103.068 40.0045 102.817 38.5776 102.262C37.1507 101.707 35.8541 100.861 34.77 99.7775C33.686 98.6938 32.838 97.396 32.28 95.9663C31.7219 94.5366 31.4658 93.0061 31.528 91.472ZM48.6698 91.472C48.6698 88.0689 46.6348 85.1195 43.0171 85.1195C39.3994 85.1195 37.4492 88.0689 37.4492 91.472C37.4492 94.875 39.4418 97.8669 43.0171 97.8669C46.5924 97.8669 48.6557 94.9176 48.6557 91.472H48.6698Z" fill="black"/>
<path d="M72.6796 89.2033C72.6796 86.1689 71.0968 85.1196 68.652 85.1196C67.6783 85.1311 66.7208 85.3718 65.8568 85.8225C64.9928 86.2733 64.2463 86.9213 63.6776 87.7144V102.461H57.9401V80.5396H63.6776V83.3755C64.63 82.2862 65.807 81.4176 67.1271 80.83C68.4472 80.2424 69.8789 79.9498 71.3229 79.9724C76.1136 79.9724 78.3888 82.6949 78.3888 86.9629V102.433H72.6796V89.2033Z" fill="black"/>
</g>
<defs>
<clipPath id="clip0">
<rect width="80" height="103" fill="white"/>
</clipPath>
</defs>
</svg>
