<?xml version="1.0" encoding="utf-8"?><svg xmlns="http://www.w3.org/2000/svg" xmlns:xlink="http://www.w3.org/1999/xlink"><symbol viewBox="0 0 25 24" id="active-color" xmlns="http://www.w3.org/2000/svg"><path d="M24.124 16.528a.886.886 0 01-.508 1.145L8.093 23.655c-.86.332-1.592-.708-.989-1.405l7.273-8.411a.886.886 0 00.207-.452L16.38 1.045c.13-.902 1.375-1.041 1.703-.191l6.04 15.674z"/></symbol><symbol viewBox="0 0 16 15" id="arrow" xmlns="http://www.w3.org/2000/svg"><path d="M1.755 6.255l6.255 6.256 6.255-6.256"/></symbol><symbol viewBox="0 0 18 15" id="book" xmlns="http://www.w3.org/2000/svg"><g clip-path="url(#acclip0)"><path opacity=".5" d="M2.68.95A6.43 6.43 0 014.53.747c1.504.133 2.97.54 4.327 1.202v12.018a9.242 9.242 0 00-4.026-1.202 9.12 9.12 0 00-2.656.505c-.597.2-1.182.433-1.754.697V1.948M11.573 12.944c.483-.125.98-.19 1.478-.192 1.531.129 3.026.536 4.41 1.202V1.936A7.45 7.45 0 0013.34.735a9.41 9.41 0 00-2.5.48c-.625.198-1.236.439-1.827.721M11.693 5.097a5.408 5.408 0 012.956 0M11.693 7.176a5.408 5.408 0 012.956 0M11.693 9.243a5.408 5.408 0 012.956 0"/></g><defs><clipPath id="acclip0"><path transform="translate(0 .326)" d="M0 0h17.87v14.349H0z"/></clipPath></defs></symbol><symbol viewBox="0 0 20 22" id="bug" xmlns="http://www.w3.org/2000/svg"><path d="M18.82 7.214H1.306V20.12H18.82V7.214zM13.617 6.845V4.571a3.571 3.571 0 00-7.143 0v2.274"/></symbol><symbol viewBox="0 0 20 19" id="burger" xmlns="http://www.w3.org/2000/svg"><path d="M1 1.44h18M1 9.44h18M1 17.44h18"/></symbol><symbol viewBox="0 0 8 13" id="caret-left" xmlns="http://www.w3.org/2000/svg"><path d="M7 12L1.5 6.5 7 1"/></symbol><symbol viewBox="0 0 8 13" id="caret-right" xmlns="http://www.w3.org/2000/svg"><path d="M1 1l5.5 5.5L1 12"/></symbol><symbol viewBox="0 0 11 8" id="check" xmlns="http://www.w3.org/2000/svg"><path d="M1 2.25L4.857 6 10 1"/></symbol><symbol viewBox="0 0 14 14" id="close" xmlns="http://www.w3.org/2000/svg"><path d="M13 1L1 13M1 1l12 12"/></symbol><symbol viewBox="0 0 20 20" id="cross" xmlns="http://www.w3.org/2000/svg"><path d="M16 4L4 16M4 4l12 12"/></symbol><symbol viewBox="0 0 137 124" id="eco" xmlns="http://www.w3.org/2000/svg"><g opacity=".7" clip-path="url(#akclip0)"><path d="M78.664 45.303a39.024 39.024 0 0011.388-8.976c6.634-8.088 9.046-34.305 9.046-34.305C69.476 7.77 69.795 49.1 69.795 49.1"/><path d="M61.459 38.206c-19.051-16.46-42.571-7.095-42.571-7.095 6.172 19.015 28.664 29.02 42.925 23.13a67.64 67.64 0 008.124-5.108"/><path d="M68.447 46.792s20.221 15.787 1.525 47.715c0 0-2.944 2.66-2.944-1.171 0-1.242 15.538-27.21.425-43.812l.994-2.732zM44.182 121.433a26.536 26.536 0 00-5.712-19.902c-2.2-2.944-16.709-2.164-24.052-8.798C7.074 86.1 2.568 65.098 2.568 65.098s1.1-12.523 3.548-13.233c2.448-.71 5.144 4.045 3.548 11.388-.745 3.548 4.186 13.126 9.365 18.093 5.18 4.966 8.089 4.47 8.089 4.47a10.854 10.854 0 01-8.266-5.145c-3.157-4.08-5.18-9.188-1.951-11.6 3.938-2.98 5.108 3.193 8.62 5.925 1.845 1.454 3.903 1.454 12.594 2.163a14.19 14.19 0 0112.381 15.929c-.71 5.889 9.933 24.833 9.579 29.445M92.819 122.391a26.569 26.569 0 015.676-19.902c2.235-2.944 16.709-2.164 24.088-8.798 7.379-6.634 11.813-27.635 11.813-27.635s-1.1-12.523-3.547-13.233c-2.448-.71-5.144 4.045-3.548 11.388.71 3.548-4.647 12.7-9.401 18.093a13.09 13.09 0 01-8.088 4.47 10.93 10.93 0 008.301-5.145c3.122-4.08 5.144-9.188 1.951-11.6-3.973-2.98-5.108 3.193-8.656 5.925-1.845 1.419-3.902 1.454-12.594 2.164a14.19 14.19 0 00-12.38 15.928c.744 5.889-9.934 24.833-9.58 29.445M37.264 38.704S42.656 51.12 61.6 45.799"/></g><defs><clipPath id="akclip0"><path transform="translate(.795)" d="M0 0h135.41v123.633H0z"/></clipPath></defs></symbol><symbol viewBox="0 0 25 27" id="expand" xmlns="http://www.w3.org/2000/svg"><path d="M1 16.923v8.846h8.846M24 9.846V1h-8.846"/></symbol><symbol viewBox="0 0 21 21" id="facebook" xmlns="http://www.w3.org/2000/svg"><path d="M20.952 17.047V3.84A3.915 3.915 0 0017.607.01a4.745 4.745 0 00-.594 0H3.892A3.915 3.915 0 000 3.343V17.57l.107.439a3.963 3.963 0 003.227 2.954H17.57c.308-.095.64-.166.937-.285a3.88 3.88 0 002.444-3.63zM16.92 6.369H15.103a.558.558 0 00-.581.593v1.756h2.195c-.083.818-.166 1.613-.261 2.432h-1.97v7.273h-3.262v-7.261H9.966V8.73h1.258a2.446 2.446 0 010-.297c0-.76 0-1.53.094-2.29a2.373 2.373 0 012.136-2.147c.393-.06.79-.091 1.186-.095h2.22l.059 2.468z"/></symbol><symbol viewBox="0 0 31 28" id="fav" xmlns="http://www.w3.org/2000/svg"><path d="M27.377 3.952a7.412 7.412 0 00-10.429 0l-1.743 1.76-1.759-1.76A7.413 7.413 0 002.971 14.428l1.743 1.743 10.49 10.476L25.682 16.17l1.743-1.743a7.382 7.382 0 00-.047-10.476z"/></symbol><symbol viewBox="0 0 21 21" id="fb" xmlns="http://www.w3.org/2000/svg"><path d="M20.952 17.047V3.84A3.915 3.915 0 0017.607.01a4.745 4.745 0 00-.594 0H3.892A3.915 3.915 0 000 3.343V17.57l.107.439a3.963 3.963 0 003.227 2.954H17.57c.308-.095.64-.166.937-.285a3.88 3.88 0 002.444-3.63zM16.92 6.369H15.103a.558.558 0 00-.581.593v1.756h2.195c-.083.818-.166 1.613-.261 2.432h-1.97v7.273h-3.262v-7.261H9.966V8.73h1.258a2.446 2.446 0 010-.297c0-.76 0-1.53.094-2.29a2.373 2.373 0 012.136-2.147c.393-.06.79-.091 1.186-.095h2.22l.059 2.468z"/></symbol><symbol viewBox="0 0 96 101" id="friendly-dyes" xmlns="http://www.w3.org/2000/svg"><g opacity=".6"><path d="M52.437 25.478C39.885 16.499 43.825 2 43.825 2 57.75 3.855 60.133 26.463 60.133 26.463a34.518 34.518 0 0132.87-8.887C81.137 30.952 72.043 33.609 64.255 30.494a38.923 38.923 0 01-4.42-2.817M54.118 46.913l-1.466-2.748a5.635 5.635 0 00-7.582-2.29l-12.827 6.87a5.635 5.635 0 00-2.29 7.582l1.488 2.726.78 1.466 12.803 23.867 3.871 7.216L52.858 99l22.7-12.186-3.964-7.375M71.572 79.439L54.117 46.913M30.64 49.547l-2.726-5.085 15.965-8.566 2.726 5.085"/><path d="M33.136 41.69l-7.81-18.713 2.221-1.191 11.27 16.858M23.012 14.649s-4.879-7.1-1.03-9.529c3.848-2.428 6.688 5.269 1.03 9.529zM18.391 19.743s-6.642 1.878-7.49-1.672c-.847-3.55 5.727-3.711 7.49 1.672zM60.34 26.348s-11.453 5.36-6.872 21.508c0 0 2.29 1.65 2.084.802-1.168-4.1-1.535-16.95 5.452-20.432l-.664-1.878zM21.294 86.42c-7.3 10.288-19.164 7.114-19.164 7.114 1.473-11.39 19.945-13.407 19.945-13.407-3.444-3.455-4.782-5.326-6.073-10.03-1.291-4.703.65-5.921 1.847-10.65 5.91 4.778 10.03 10.922 7.508 17.297a31.82 31.82 0 01-2.29 3.623"/><path d="M22.708 81.231s7.143 8.555 19.875 1.02c0 0 .89-2.324.214-1.957-3.231 1.917-14.1 5.12-18.638-.051l-1.45.988zM37.076 57.724l17.935 33.282 13.423-7.215"/></g></symbol><symbol viewBox="0 0 26 22" id="heart" xmlns="http://www.w3.org/2000/svg"><path d="M22.239 2.726a5.968 5.968 0 00-8.397 0l-1.404 1.417-1.416-1.417a5.97 5.97 0 00-8.435 8.435l1.403 1.404L12.438 21l8.435-8.435 1.404-1.404a5.943 5.943 0 00-.038-8.435z"/></symbol><symbol viewBox="0 0 21 21" id="instagram" xmlns="http://www.w3.org/2000/svg"><path fill-rule="evenodd" clip-rule="evenodd" d="M10.403 0c-2.825 0-3.18.012-4.29.063C5.008.113 4.25.29 3.59.548A5.097 5.097 0 001.746 1.75 5.116 5.116 0 00.546 3.6C.29 4.263.113 5.022.063 6.133.012 7.246 0 7.6 0 10.435c0 2.834.012 3.19.063 4.302.05 1.111.226 1.87.483 2.533a5.117 5.117 0 001.2 1.849c.578.58 1.159.937 1.843 1.203.661.258 1.418.435 2.525.485 1.11.051 1.464.063 4.289.063 2.825 0 3.18-.012 4.289-.063 1.107-.05 1.863-.227 2.525-.485a5.098 5.098 0 001.843-1.203 5.116 5.116 0 001.2-1.849c.257-.663.433-1.422.483-2.533.05-1.113.063-1.468.063-4.302 0-2.834-.012-3.19-.063-4.302-.05-1.111-.226-1.87-.483-2.533a5.115 5.115 0 00-1.2-1.849A5.097 5.097 0 0017.217.548C16.555.29 15.8.113 14.692.063 13.582.012 13.228 0 10.402 0zM10.4 1.88c2.778 0 3.107.011 4.204.061 1.014.047 1.565.217 1.931.36.486.189.832.415 1.196.78.364.365.59.713.779 1.2.142.368.312.92.358 1.938.05 1.1.06 1.43.06 4.216 0 2.786-.01 3.117-.06 4.217-.046 1.017-.216 1.57-.358 1.938a3.233 3.233 0 01-.779 1.2c-.364.364-.71.59-1.196.78-.366.143-.917.313-1.931.36-1.097.05-1.426.06-4.204.06-2.778 0-3.107-.01-4.204-.06-1.014-.047-1.565-.217-1.931-.36a3.222 3.222 0 01-1.197-.78 3.234 3.234 0 01-.778-1.2c-.142-.368-.312-.92-.358-1.938-.05-1.1-.06-1.43-.06-4.217 0-2.786.01-3.116.06-4.216.046-1.018.216-1.57.358-1.938.189-.487.414-.835.778-1.2.364-.365.711-.591 1.197-.78.366-.143.917-.313 1.931-.36 1.097-.05 1.426-.06 4.204-.06zm.004 12.316a3.759 3.759 0 01-3.753-3.764 3.759 3.759 0 013.753-3.765 3.759 3.759 0 013.752 3.765 3.759 3.759 0 01-3.752 3.764zm0-9.563c-3.194 0-5.782 2.596-5.782 5.799 0 3.202 2.588 5.799 5.781 5.799 3.193 0 5.782-2.597 5.782-5.8 0-3.202-2.589-5.798-5.782-5.798zm5.781 1.16c.639 0 1.156-.52 1.156-1.16 0-.641-.517-1.16-1.156-1.16-.638 0-1.156.519-1.156 1.16 0 .64.518 1.16 1.156 1.16z"/></symbol><symbol viewBox="0 0 24 25" id="linkedin" xmlns="http://www.w3.org/2000/svg"><g clip-path="url(#asclip0)"><path d="M19 .962H5a5 5 0 00-5 5v14a5 5 0 005 5h14a5 5 0 005-5v-14a5 5 0 00-5-5zm-11 19H5v-11h3v11zM6.5 7.694c-.966 0-1.75-.79-1.75-1.764s.784-1.764 1.75-1.764 1.75.79 1.75 1.764-.783 1.764-1.75 1.764zM20 19.962h-3v-5.604c0-3.368-4-3.113-4 0v5.604h-3v-11h3v1.765c1.396-2.586 7-2.777 7 2.476v6.759z"/></g><defs><clipPath id="asclip0"><path transform="translate(0 .962)" d="M0 0h24v24H0z"/></clipPath></defs></symbol><symbol viewBox="0 0 80 103" id="logo" xmlns="http://www.w3.org/2000/svg"><g clip-path="url(#atclip0)"><path d="M22.71 17.554H8.465v12.762H2.02V0h6.43v11.882h14.244V0h6.459v30.26h-6.459l.015-12.706zM48.656 27.494a10.217 10.217 0 01-7.688 3.304c-4.79 0-7.066-2.623-7.066-6.892V8.31h5.738v13.3c0 3.035 1.582 4.042 4.027 4.042a6.44 6.44 0 004.975-2.496V8.337h5.737V30.26h-5.723v-2.765zM69.062 7.799C75.577 7.799 80 12.705 80 19.866v1.276H63.777a5.89 5.89 0 002.13 3.79 5.851 5.851 0 004.144 1.286 8.914 8.914 0 005.837-2.17l2.53 3.716a13.523 13.523 0 01-8.989 3.034c-6.656 0-11.672-4.48-11.672-11.514a11.194 11.194 0 013.204-8.169 11.089 11.089 0 018.102-3.316zm-5.384 9.472h10.768a5.09 5.09 0 00-1.67-3.57 5.053 5.053 0 00-3.714-1.294 5.247 5.247 0 00-3.66 1.353 5.282 5.282 0 00-1.724 3.51zM2.02 36.228h11.9c9.454 0 15.997 6.041 15.997 15.158 0 9.118-6.543 15.116-15.997 15.116H2.02V36.229zm11.9 24.602a9.002 9.002 0 006.803-2.63 9.064 9.064 0 002.65-6.814c0-5.36-3.264-9.486-9.453-9.486H8.45v18.93h5.47zM32.786 37.916a3.468 3.468 0 01.574-1.926 3.438 3.438 0 015.307-.54 3.464 3.464 0 01.754 3.772 3.457 3.457 0 01-1.27 1.555 3.44 3.44 0 01-1.917.584 3.457 3.457 0 01-2.43-1.012 3.48 3.48 0 01-1.018-2.433zm.593 6.664h5.738v21.922h-5.738V44.58zM40.714 44.58h6.147l5.653 15.244 5.652-15.243h6.19l-8.634 21.921h-6.204l-8.804-21.921zM65.444 37.916a3.48 3.48 0 011.014-2.428 3.456 3.456 0 012.42-1.018c.911 0 1.784.363 2.428 1.01a3.452 3.452 0 010 4.872 3.429 3.429 0 01-2.428 1.01 3.457 3.457 0 01-2.42-1.018 3.48 3.48 0 01-1.014-2.428zm.594 6.664h5.737v21.922h-5.737V44.58zM2.487 95.556a12.469 12.469 0 007.56 2.992c2.488 0 3.66-.851 3.66-2.212 0-1.361-1.907-2.099-4.394-2.595C5.568 93.018.72 92.11.72 86.892c0-3.672 3.222-6.891 8.96-6.891a13.918 13.918 0 018.817 2.992l-2.346 3.942a9.226 9.226 0 00-6.472-2.538c-2.077 0-3.434.78-3.434 2.041 0 1.262 1.724 1.858 4.155 2.368 3.759.724 8.776 1.716 8.776 7.161 0 3.999-3.392 7.09-9.454 7.09a14.71 14.71 0 01-9.766-3.403l2.53-4.098zM21.89 73.875a3.468 3.468 0 012.122-3.208 3.437 3.437 0 013.765.748 3.462 3.462 0 01.744 3.777 3.457 3.457 0 01-1.276 1.552 3.44 3.44 0 01-1.92.577 3.457 3.457 0 01-2.42-1.017 3.48 3.48 0 01-1.015-2.429zm.594 6.665h5.737v21.921h-5.737V80.54zM31.528 91.472a11.628 11.628 0 011.916-6.466 11.568 11.568 0 015.177-4.303 11.524 11.524 0 0112.625 2.481 11.61 11.61 0 013.177 5.945c.45 2.254.22 4.59-.657 6.714a11.59 11.59 0 01-4.27 5.211A11.539 11.539 0 0143.06 103a11.013 11.013 0 01-4.481-.738 11.056 11.056 0 01-6.298-6.296 11.121 11.121 0 01-.752-4.494zm17.142 0c0-3.403-2.035-6.352-5.653-6.352-3.618 0-5.568 2.949-5.568 6.352 0 3.403 1.993 6.395 5.568 6.395 3.575 0 5.639-2.95 5.639-6.395h.014zM72.68 89.203c0-3.034-1.583-4.083-4.028-4.083a6.202 6.202 0 00-4.974 2.594v14.747H57.94V80.54h5.738v2.835a9.935 9.935 0 017.645-3.403c4.79 0 7.066 2.723 7.066 6.99v15.471h-5.71v-13.23z"/></g><defs><clipPath id="atclip0"><path d="M0 0h80v103H0z"/></clipPath></defs></symbol><symbol id="nuhu-logo-black" viewBox="0 0 246.5 300.4" xml:space="preserve" xmlns="http://www.w3.org/2000/svg"><style/><path d="M107.1 31.1v77.7H73.8V43.5c-.2-4.6-1.4-8.3-3.7-11-2.3-2.8-6.1-4.2-11.5-4.2-5.1 0-9.5 1.7-13.3 5-3.8 3.3-6.7 7.8-8.8 13.5-2 5.7-3.1 12.3-3.1 19.7v42.3H0V5h30.2l2.3 16.6c3.6-6.3 8.7-11.5 15.3-15.5C54.5 2 62.7 0 72.3 0c9.8 0 18 2.9 24.6 8.7 6.7 5.8 10 13.3 10.2 22.4zM246.5 5v103.9h-30.2L214 92.3c-2.4 4.2-5.3 7.9-8.9 11.1-3.7 3.3-8 5.9-13 7.7-5 1.8-10.6 2.7-16.8 2.7-9.4 0-17.2-2.9-23.6-8.7-6.3-5.8-9.7-13.3-10-22.5V5H175v65.4c.3 4.6 1.5 8.3 3.6 11 2.1 2.8 5.6 4.2 10.5 4.2s9.2-1.7 12.7-5c3.6-3.3 6.3-7.9 8.3-13.7 2-5.8 3-12.3 3-19.6V5h33.4zM107.1 217.7v77.7H73.8V230c-.2-4.6-1.4-8.3-3.7-11-2.3-2.8-6.1-4.2-11.5-4.2-5.1 0-9.5 1.7-13.3 5-3.8 3.3-6.7 7.8-8.8 13.5-2 5.7-3.1 12.3-3.1 19.7v42.3H0V143.9h32.6V208c3.6-6.3 8.7-11.5 15.2-15.4 6.7-4 14.8-6.1 24.5-6.1 9.8 0 18 2.9 24.6 8.7 6.7 5.8 10 13.3 10.2 22.5zM206.4 149.4c3.6-3.2 7.5-4.9 11.8-4.9 4 0 7.7 1.6 11.3 4.9 3.6 3.3 5.4 7.4 5.4 12.5s-1.8 9.2-5.4 12.4c-3.6 3.2-7.3 4.8-11.3 4.8-4.3 0-8.2-1.6-11.8-4.8-3.6-3.2-5.4-7.3-5.4-12.4 0-5.1 1.8-9.3 5.4-12.5zm-47.1 0c3.6-3.2 7.5-4.9 11.8-4.9 4 0 7.7 1.6 11.3 4.9 3.6 3.3 5.4 7.4 5.4 12.5s-1.8 9.2-5.4 12.4c-3.6 3.2-7.3 4.8-11.3 4.8-4.3 0-8.2-1.6-11.8-4.8-3.6-3.2-5.4-7.3-5.4-12.4 0-5.1 1.8-9.3 5.4-12.5zm16 151c-9.4 0-17.2-2.9-23.6-8.7-6.3-5.8-9.7-13.3-10-22.5v-77.7H175v65.4c.3 4.6 1.5 8.3 3.6 11.1 2.1 2.8 5.6 4.2 10.5 4.2s9.2-1.7 12.7-5 6.3-7.9 8.3-13.7c2-5.8 3-12.3 3-19.6v-42.3h33.3v103.9h-30.2l-2.6-19 .5 2.1c-2.4 4.3-5.4 8.1-9 11.4-3.7 3.3-8 5.9-13 7.7-5 1.8-10.6 2.7-16.8 2.7z"/></symbol><symbol id="nuhu-logo-white" viewBox="0 0 246.5 300.4" xml:space="preserve" xmlns="http://www.w3.org/2000/svg"><style>.avst0{fill:#fff}</style><path class="avst0" d="M107.1 31.1v77.7H73.8V43.5c-.2-4.6-1.4-8.3-3.7-11-2.3-2.8-6.1-4.2-11.5-4.2-5.1 0-9.5 1.7-13.3 5-3.8 3.3-6.7 7.8-8.8 13.5-2 5.7-3.1 12.3-3.1 19.7v42.3H0V5h30.2l2.3 16.6c3.6-6.3 8.7-11.5 15.3-15.5C54.5 2 62.7 0 72.3 0c9.8 0 18 2.9 24.6 8.7 6.7 5.8 10 13.3 10.2 22.4zM246.5 5v103.9h-30.2L214 92.3c-2.4 4.2-5.3 7.9-8.9 11.1-3.7 3.3-8 5.9-13 7.7-5 1.8-10.6 2.7-16.8 2.7-9.4 0-17.2-2.9-23.6-8.7-6.3-5.8-9.7-13.3-10-22.5V5H175v65.4c.3 4.6 1.5 8.3 3.6 11 2.1 2.8 5.6 4.2 10.5 4.2s9.2-1.7 12.7-5c3.6-3.3 6.3-7.9 8.3-13.7 2-5.8 3-12.3 3-19.6V5h33.4zM107.1 217.7v77.7H73.8V230c-.2-4.6-1.4-8.3-3.7-11-2.3-2.8-6.1-4.2-11.5-4.2-5.1 0-9.5 1.7-13.3 5-3.8 3.3-6.7 7.8-8.8 13.5-2 5.7-3.1 12.3-3.1 19.7v42.3H0V143.9h32.6V208c3.6-6.3 8.7-11.5 15.2-15.4 6.7-4 14.8-6.1 24.5-6.1 9.8 0 18 2.9 24.6 8.7 6.7 5.8 10 13.3 10.2 22.5zM206.4 149.4c3.6-3.2 7.5-4.9 11.8-4.9 4 0 7.7 1.6 11.3 4.9 3.6 3.3 5.4 7.4 5.4 12.5s-1.8 9.2-5.4 12.4c-3.6 3.2-7.3 4.8-11.3 4.8-4.3 0-8.2-1.6-11.8-4.8-3.6-3.2-5.4-7.3-5.4-12.4 0-5.1 1.8-9.3 5.4-12.5zm-47.1 0c3.6-3.2 7.5-4.9 11.8-4.9 4 0 7.7 1.6 11.3 4.9 3.6 3.3 5.4 7.4 5.4 12.5s-1.8 9.2-5.4 12.4c-3.6 3.2-7.3 4.8-11.3 4.8-4.3 0-8.2-1.6-11.8-4.8-3.6-3.2-5.4-7.3-5.4-12.4 0-5.1 1.8-9.3 5.4-12.5zm16 151c-9.4 0-17.2-2.9-23.6-8.7-6.3-5.8-9.7-13.3-10-22.5v-77.7H175v65.4c.3 4.6 1.5 8.3 3.6 11.1 2.1 2.8 5.6 4.2 10.5 4.2s9.2-1.7 12.7-5 6.3-7.9 8.3-13.7c2-5.8 3-12.3 3-19.6v-42.3h33.3v103.9h-30.2l-2.6-19 .5 2.1c-2.4 4.3-5.4 8.1-9 11.4-3.7 3.3-8 5.9-13 7.7-5 1.8-10.6 2.7-16.8 2.7z"/></symbol><symbol viewBox="0 0 324 128" id="oeko" xmlns="http://www.w3.org/2000/svg"><g opacity=".2" clip-path="url(#awclip0)"><path d="M14.716 98.308c-.108.114-.216.227-.432.34-.216.114-.432.34-.864.454-.325.113-.757.227-1.297.34-.54.113-1.08.113-1.729.113a9.194 9.194 0 01-3.187-.566c-.865-.454-1.621-1.02-2.161-1.7-.54-.794-.973-1.588-1.297-2.665-.324-1.02-.432-2.154-.432-3.458 0-1.303.108-2.267.432-3.457.324-1.02.756-1.927 1.297-2.664a4.631 4.631 0 012.16-1.7c.865-.454 1.946-.68 3.188-.68.54 0 1.08 0 1.621.112l1.297.34c.324.114.648.34.864.454.216.113.432.34.54.454.108.113.216.226.324.453.109.227.109.34.109.567 0 .34-.109.68-.325.907-.216.34-.432.567-.756.907-.216-.227-.432-.34-.648-.567-.216-.227-.433-.34-.757-.567l-.972-.34h-1.08c-.757 0-1.405.113-1.946.453-.54.34-.972.794-1.296 1.247A5.162 5.162 0 006.72 88.9c-.109.68-.109 1.36-.109 2.04 0 .794.109 1.474.217 2.155.108.68.324 1.247.756 1.814.324.566.756.906 1.297 1.246.54.34 1.188.454 2.053.454.432 0 .864 0 1.188-.113.324-.114.648-.227.973-.454.324-.113.54-.34.756-.453.216-.227.324-.34.54-.454.108.114.216.227.324.454.108.113.216.34.324.453.109.227.217.34.325.567.108.227.108.34.108.453 0 .227 0 .34-.108.567-.433.34-.54.454-.649.68zM33.41 91.11c0 1.134-.109 2.267-.433 3.344-.216 1.02-.648 1.928-1.189 2.778-.54.793-1.296 1.36-2.16 1.814-.865.453-1.946.68-3.188.68-1.243 0-2.27-.227-3.188-.68-.864-.454-1.512-1.02-2.16-1.814a7.5 7.5 0 01-1.19-2.778 15.176 15.176 0 01-.323-3.23c0-1.134.108-2.154.432-3.231.324-1.02.648-1.928 1.296-2.664.54-.794 1.297-1.36 2.161-1.814.865-.454 1.945-.68 3.188-.68 1.242 0 2.269.226 3.08.68a6.277 6.277 0 012.052 1.7c.54.794.973 1.587 1.189 2.664.324.907.432 2.097.432 3.231zm-3.188 0c0-.793-.108-1.474-.216-2.154a5.161 5.161 0 00-.649-1.814 3.978 3.978 0 00-1.08-1.247c-.433-.34-.973-.453-1.73-.453-.647 0-1.296.113-1.728.453-.432.34-.864.68-1.188 1.247a5.165 5.165 0 00-.649 1.814c-.108.68-.216 1.36-.216 2.154 0 .794.108 1.474.216 2.154.108.68.324 1.36.649 1.814.324.567.648 1.02 1.08 1.247.432.34 1.08.453 1.729.453.648 0 1.296-.113 1.729-.453.432-.34.864-.794 1.08-1.247.324-.567.432-1.134.649-1.814.216-.68.324-1.36.324-2.154zM51.345 99.272h-2.647l-6.537-10.543v10.543h-3.08V83.23c.109 0 .325-.114.649-.114h.756c.432 0 .865.114 1.08.227.325.227.541.454.757.794l5.889 10.09V83.06c.216 0 .432-.114.54-.114h.432c.216 0 .433 0 .649.114.216 0 .432.113.648.226.216.114.324.34.432.567.108.227.216.567.216.907v14.454h.216v.057zM60.53 89.41h4.916v2.55H60.53v7.312h-3.188V83.061h9.617c0 .227 0 .34.108.453v.454c0 .453-.108.907-.432 1.134-.216.34-.757.453-1.405.453h-4.7v3.854zM71.983 83.06c.216 0 .432-.113.648-.113h.433c.216 0 .432 0 .648.114.216 0 .432.113.648.226.216.114.325.34.54.567.109.227.217.567.217.907v14.454h-3.188c.054.057.054-16.154.054-16.154zM93.431 90.883c0 1.133-.108 2.154-.432 3.23-.324 1.02-.756 1.928-1.296 2.665-.54.793-1.297 1.36-2.27 1.814-.864.453-1.944.68-3.295.68h-4.916V83.23c.972-.114 1.837-.227 2.539-.227h1.729c1.512 0 2.863.227 3.836.68.972.454 1.836 1.02 2.43 1.7.649.68.973 1.588 1.297 2.551.27.85.378 1.927.378 2.948zm-3.295 0c0-.794-.108-1.474-.216-2.04-.108-.568-.324-1.248-.757-1.701-.324-.454-.756-.907-1.296-1.134a5.642 5.642 0 00-2.161-.453c-.432 0-.865 0-1.405.113v11.11h1.297c.864 0 1.62-.114 2.16-.454.541-.227 1.081-.68 1.405-1.133.325-.454.54-1.134.757-1.814.216-.794.216-1.587.216-2.494zM107.046 96.608c.756 0 1.188.227 1.512.567.216.34.432.794.432 1.134v.793h-9.94V83.061h9.616c0 .227 0 .34.108.453v.454c0 .567-.108 1.02-.432 1.247-.324.227-.756.453-1.513.453h-4.484v4.025h4.917v2.55h-4.917v4.479h4.701v-.114zM126.063 99.272h-2.648l-6.537-10.543v10.543h-3.079V83.23c.108 0 .324-.114.648-.114h.756c.433 0 .865.114 1.081.227.324.227.54.454.756.794l5.889 10.09V83.06c.216 0 .432-.114.54-.114h.433c.216 0 .432 0 .648.114.216 0 .432.113.648.226.216.114.324.34.432.567.108.227.217.567.217.907v14.454h.216v.057zM143.135 98.308c-.108.114-.216.227-.432.34-.217.114-.433.34-.865.454-.324.113-.756.227-1.297.34-.54.113-1.08.113-1.728.113a9.197 9.197 0 01-3.188-.567c-.864-.453-1.621-1.02-2.161-1.7-.54-.793-.972-1.587-1.296-2.664-.325-1.02-.433-2.154-.433-3.344 0-1.247.108-2.268.433-3.458.324-1.02.756-1.927 1.296-2.664a4.632 4.632 0 012.161-1.7c.865-.454 1.945-.68 3.188-.68.54 0 1.08 0 1.62.113l1.297.34c.324.113.648.34.864.453.217.114.433.34.541.454.108.113.216.227.324.453.108.227.108.34.108.567 0 .34-.108.68-.324.907-.216.34-.432.567-.757.907-.216-.227-.432-.34-.648-.567-.216-.227-.432-.34-.756-.567l-.973-.34c-.324-.113-.756-.113-1.188-.113-.757 0-1.405.113-1.945.453s-.973.794-1.297 1.247a5.164 5.164 0 00-.648 1.814c-.108.68-.216 1.36-.216 2.04 0 .794.108 1.474.216 2.155.108.68.324 1.247.756 1.813.324.567.757.907 1.297 1.247.54.34 1.188.454 2.053.454.432 0 .864 0 1.188-.114.325-.113.649-.226.973-.453.324-.113.54-.34.756-.453.216-.227.324-.34.54-.454.108.114.217.227.325.454.108.113.216.34.324.453.108.227.216.34.324.567.108.227.108.34.108.453 0 .227 0 .34-.108.567-.108.34-.216.454-.432.68zM157.235 96.608c.756 0 1.189.227 1.513.567.216.34.432.794.432 1.134v.793h-9.941V83.061h9.617c0 .227 0 .34.108.453v.454c0 .567-.108 1.02-.432 1.247-.325.227-.757.453-1.513.453h-4.484v4.025h4.916v2.55h-4.916v4.479h4.7v-.114zM172.416 83.06c.216 0 .433-.113.649-.113h.432c.216 0 .432 0 .648.114.216 0 .432.113.648.226.217.114.325.34.541.567.108.227.216.567.216.907v14.454h-3.188l.054-16.154zM193.756 99.272h-2.647l-6.537-10.6v10.543h-3.079V83.174c.108 0 .324-.113.648-.113h.756c.433 0 .865.113 1.081.226.324.227.54.454.756.794l5.889 10.09V83.06c.216 0 .432-.114.54-.114h.432c.217 0 .433 0 .649.114.216 0 .432.113.648.226.216.114.324.34.432.567.108.227.216.567.216.907v14.454h.216v.057zM211.531 85.725h-4.809c0-.227 0-.34-.108-.453v-.454c0-.453.108-.793.432-1.133.325-.34.757-.567 1.513-.567h10.805c0 .34.108.68.108 1.02 0 .453-.108.793-.432 1.134-.324.34-.756.566-1.405.566h-2.809v13.434h-3.187V85.725h-.108zM232.331 96.608c.756 0 1.188.227 1.512.567.217.34.433.794.433 1.134v.793h-9.941V83.061h9.616c0 .227 0 .34.109.453v.454c0 .567-.109 1.02-.433 1.247-.324.227-.756.453-1.512.453h-4.484v4.025h4.916v2.55h-4.916v4.479h4.7v-.114zM244.324 93.83l-2.863 5.386h-3.404l4.592-8.05-4.052-7.708.973-.34c.324-.114.648-.114.972-.114.865 0 1.405.34 1.837 1.134l2.161 4.365 2.269-4.138c.324-.454.541-.907.865-1.134.324-.227.756-.34 1.188-.34.324 0 .649 0 .865.113.216.114.54.227.756.34l-4.268 7.596 4.484 8.049c-.324.113-.54.227-.972.227-.325.113-.649.113-.865.113-.648 0-1.08-.113-1.404-.34a2.63 2.63 0 01-.865-1.02l-2.269-4.138zM259.073 85.725h-4.808c0-.227 0-.34-.108-.453v-.454c0-.453.108-.793.432-1.133.324-.34.756-.567 1.513-.567h10.805c0 .34.108.68.108 1.02 0 .453-.108.793-.432 1.134-.325.34-.757.566-1.405.566h-2.971v13.434h-3.188V85.725h.054zM271.769 83.06c.216 0 .432-.113.648-.113h.432c.216 0 .433 0 .649.114.216 0 .432.113.648.226.216.114.324.34.54.567.108.227.216.567.216.907v14.454h-3.187l.054-16.154zM284.141 96.495h4.484c.324 0 .648 0 .864.113.216.114.432.227.54.34.108.114.216.34.325.567 0 .227.108.454.108.567v.907h-9.509V82.948c.216 0 .432-.113.648-.113h.433c.216 0 .432 0 .648.113.216.113.432.113.648.227.216.113.324.34.54.566.109.227.217.567.217.907v11.847h.054zM303.59 96.608c.756 0 1.189.227 1.513.567.216.34.432.794.432 1.134v.793h-9.941V83.061h9.617c0 .227 0 .34.108.453v.454c0 .567-.108 1.02-.432 1.247-.325.227-.757.453-1.513.453h-4.484v4.025h4.916v2.55h-4.916v4.479h4.7v-.114zM310.559 95.475c.432.34.973.68 1.513 1.02.648.34 1.296.567 2.161.567.324 0 .648 0 .972-.114.324-.113.541-.226.757-.34.216-.113.432-.34.54-.68.108-.227.216-.567.216-1.02 0-.454-.108-.794-.216-1.02-.216-.34-.432-.567-.648-.68-.325-.227-.541-.34-.973-.567-.324-.114-.756-.34-1.08-.454-.433-.227-.973-.34-1.513-.567-.54-.227-.973-.453-1.297-.793a3.514 3.514 0 01-.972-1.247c-.216-.567-.324-1.134-.324-1.928 0-.793.108-1.473.432-2.04s.648-1.02 1.188-1.474c.541-.34 1.081-.68 1.729-.907a6.028 6.028 0 012.053-.34c.54 0 .973 0 1.405.113.432.114.864.227 1.188.34.325.114.649.227.865.34.216.114.432.227.54.34.432.227.648.568.648 1.021 0 .227-.108.454-.216.794s-.432.68-.648 1.02c-.432-.34-.864-.567-1.513-.907-.648-.34-1.188-.453-1.945-.453-.324 0-.54 0-.864.113-.324 0-.54.113-.756.34-.217.113-.433.34-.541.567a2.22 2.22 0 00-.216.907c0 .34.108.567.216.907.108.226.324.453.649.68.216.227.54.34.864.453.324.114.648.34 1.081.454a6.05 6.05 0 001.512.567c.541.226.973.453 1.405.793.432.34.756.794.972 1.247.217.567.433 1.134.433 1.927 0 .794-.108 1.587-.433 2.268-.324.68-.648 1.133-1.188 1.587-.54.453-1.081.793-1.837 1.02a7.868 7.868 0 01-2.269.34c-1.081 0-1.945-.113-2.647-.34-.649-.227-1.189-.453-1.513-.68a.865.865 0 01-.432-.454c-.108-.226-.216-.34-.216-.566 0-.227.108-.567.324-1.02.162-.454.378-.794.594-1.134zM37.029 45.934c0 3.117-.324 5.951-1.08 8.842-.65 2.778-1.73 5.158-3.296 7.199-1.567 2.04-3.512 3.684-5.781 4.931-2.431 1.134-5.24 1.814-8.644 1.814-3.296 0-6.105-.567-8.428-1.814-2.323-1.247-4.268-2.89-5.673-4.931-1.512-2.04-2.539-4.478-3.187-7.199a39.27 39.27 0 01-.973-8.729c0-3.004.324-5.838 1.08-8.502.757-2.778 1.838-5.045 3.512-7.086 1.513-2.04 3.512-3.684 5.89-4.817 2.43-1.247 5.132-1.814 8.427-1.814 3.188 0 5.997.567 8.32 1.7 2.27 1.134 4.16 2.777 5.673 4.705 1.404 2.04 2.539 4.364 3.187 6.972.649 2.664.973 5.611.973 8.729zm-8.644.113c0-2.04-.108-4.024-.54-5.838-.325-1.814-.865-3.458-1.621-4.818-.757-1.36-1.73-2.55-2.972-3.344S20.497 30.8 18.66 30.8c-1.837 0-3.512.34-4.7 1.247-1.189.793-2.27 1.813-3.08 3.23-.864 1.36-1.404 3.005-1.728 4.819a33.386 33.386 0 00-.54 5.838c0 2.04.215 4.024.54 5.838.324 1.927.864 3.571 1.62 5.045.757 1.474 1.837 2.664 3.08 3.457 1.296.794 2.863 1.247 4.592 1.247 1.837 0 3.404-.453 4.7-1.247 1.297-.793 2.27-2.04 3.08-3.457.756-1.474 1.296-3.118 1.62-5.045.433-1.7.54-3.684.54-5.725zM65.77 60.728c1.945 0 3.296.453 4.052 1.36.648.907 1.08 2.04 1.08 3.118v1.133c0 .34 0 .68-.108 1.02h-26.58V24.566H69.66c.108.453.216.793.216 1.133 0 .34.108.68.108 1.134 0 1.473-.432 2.664-1.08 3.457-.649.68-2.053 1.134-4.052 1.134H52.588v10.656h13.02v6.859h-13.02V60.84h13.128v-.113h.054zM76.36 24.622c.54-.114 1.08-.114 1.62-.227.54 0 .973-.114 1.189-.114.648 0 1.188 0 1.837.227a4.64 4.64 0 011.728.68c.54.34.973.907 1.297 1.474.324.68.432 1.474.432 2.664V44.8c.108-1.02.324-1.927.865-2.777.54-.907 1.08-1.814 1.728-2.778l8.428-11.563c.973-1.247 1.837-2.154 2.864-2.777a5.718 5.718 0 012.971-.794c1.081 0 2.053.114 2.972.567.864.34 1.512.794 2.052 1.36l-13.56 19.046 15.181 21.54c-1.512 1.133-3.187 1.586-4.808 1.586-2.755 0-4.916-1.133-6.537-3.344l-8.968-12.13c-.757-1.02-1.405-2.04-1.945-3.344-.648-1.134-.865-2.268-.973-3.571v21.652h-8.32V24.451h-.054v.17zM145.079 45.934c0 3.117-.324 5.951-1.08 8.842-.648 2.778-1.837 5.158-3.296 7.199-1.512 2.04-3.511 3.684-5.78 4.931-2.269 1.134-5.241 1.814-8.536 1.814-3.296 0-6.105-.567-8.428-1.814-2.432-1.247-4.268-2.89-5.673-4.931-1.513-2.04-2.539-4.478-3.188-7.199-.648-2.777-.972-5.611-.972-8.729 0-3.004.324-5.838 1.08-8.502.757-2.778 1.837-5.045 3.404-7.086 1.513-2.04 3.512-3.684 5.889-4.817 2.431-1.247 5.132-1.814 8.428-1.814 3.187 0 5.997.567 8.32 1.7 2.269 1.134 4.268 2.777 5.672 4.705 1.513 2.04 2.54 4.364 3.296 6.972.54 2.664.864 5.611.864 8.729zm-8.59.113c0-2.04-.108-4.024-.432-5.838s-.864-3.458-1.621-4.818c-.756-1.36-1.728-2.55-2.971-3.344-1.189-.794-2.755-1.247-4.484-1.247-1.837 0-3.512.34-4.7 1.247-1.297.793-2.269 1.927-3.188 3.344a15.682 15.682 0 00-1.729 4.818 33.402 33.402 0 00-.54 5.838c0 2.04.216 4.025.54 5.838.324 1.928.865 3.571 1.621 5.045.756 1.474 1.837 2.664 3.08 3.458 1.188.793 2.755 1.247 4.592 1.247 1.837 0 3.403-.454 4.7-1.247 1.188-.794 2.269-2.04 2.971-3.458.757-1.474 1.297-3.117 1.621-5.045.432-1.813.54-3.797.54-5.838zM156.479 52.906c-2.972 0-4.376-1.36-4.376-4.024 0-.907 0-1.814.216-2.778h15.289c1.296 0 2.431.227 3.295.68.865.454 1.297 1.587 1.297 3.345v1.36c-.108.453-.108.907-.108 1.36 0 .057-15.613.057-15.613.057zM183.113 31.706h-12.804c-.108-.566-.108-.906-.108-1.247v-1.247c0-1.133.324-2.154 1.189-3.23.756-.907 2.161-1.474 4.052-1.474h28.741c.108.907.216 1.814.216 2.777 0 1.134-.324 2.154-1.08 3.118-.757.963-2.053 1.36-3.944 1.36h-7.78V67.53h-8.536l.054-35.824zM230.439 60.728c1.945 0 3.296.453 4.052 1.36.649.907 1.081 2.04 1.081 3.118v1.133c0 .34 0 .68-.108 1.02h-26.581V24.566h25.446c.108.453.108.906.216 1.246v1.134c0 1.474-.432 2.664-1.08 3.458-.756.68-2.053 1.133-4.16 1.133h-12.048V42.25h13.02v6.859h-13.02V61.01h13.128v-.283h.054zM254.481 53.36l-7.78 14.227h-9.184l12.156-21.426-10.697-20.406a138.1 138.1 0 012.647-1.02c.864-.227 1.837-.34 2.755-.34 2.161 0 3.836 1.02 4.917 3.117l5.996 11.563 5.997-10.883c.757-1.36 1.513-2.38 2.431-3.004.757-.567 1.945-.907 3.296-.907.864 0 1.621.114 2.269.34.648.227 1.405.567 2.161.907L260.1 45.708l11.885 21.538c-.756.227-1.62.567-2.539.68-.918.114-1.621.227-2.269.227-1.621 0-2.971-.34-3.836-1.02-.864-.68-1.621-1.587-2.269-2.89l-6.591-10.884zM310.343 41.002c0 .907-.108 1.7-.324 2.381-.216.68-.54 1.36-.864 1.814-.324.567-.865.907-1.297 1.36-.432.34-.972.567-1.513.794l5.241 9.182c-.432.114-.864.34-1.297.454-.432.113-.864.113-1.296.113a3.6 3.6 0 01-1.945-.567c-.54-.34-.973-.907-1.405-1.7l-3.62-6.405h-1.836v8.389h-4.376V34.824c.972-.113 1.944-.227 2.971-.227.972 0 1.837-.113 2.755-.113 3.08 0 5.349.567 6.645 1.587 1.405 1.134 2.161 2.72 2.161 4.931zm-4.592.454c0-1.36-.324-2.38-.972-2.891-.649-.567-1.621-.793-2.864-.793h-.972c-.324 0-.54 0-.648.113v7.709h1.512c1.297 0 2.269-.34 2.972-.907.648-.85.972-1.87.972-3.231z"/><path d="M324.12 46.274c0 12.47-9.725 22.73-21.664 22.73-11.94 0-21.664-10.09-21.664-22.73 0-12.47 9.724-22.73 21.664-22.73 11.939 0 21.664 10.203 21.664 22.73zm-21.664-17.458c-9.185 0-16.586 7.822-16.586 17.401 0 9.58 7.455 17.402 16.586 17.402 9.184 0 16.586-7.822 16.586-17.402 0-9.579-7.402-17.401-16.586-17.401z"/></g><defs><clipPath id="awclip0"><path d="M0 0h324v128H0z"/></clipPath></defs></symbol><symbol viewBox="0 0 120 97" id="organic-cotton" xmlns="http://www.w3.org/2000/svg"><g opacity=".6" clip-path="url(#axclip0)"><path d="M3.929 38.663a16.281 16.281 0 01-2.825-9.208 16.452 16.452 0 014.835-11.653 16.512 16.512 0 0111.674-4.826M24.499 44.37a16.38 16.38 0 01-6.886 1.497M55.906 35.932v1.124a16.37 16.37 0 01-2.816 8.195 16.412 16.412 0 01-6.609 5.618M51.139 24.388a16.375 16.375 0 014.767 11.544M43.392 3.878a17.836 17.836 0 016.037 6.45 17.797 17.797 0 012.195 8.552c.03 3.029-.73 6.013-2.207 8.658M35.004 1.168a8.202 8.202 0 012.45.286 17.919 17.919 0 016.004 2.424"/><path d="M15.98 18.88c0-.683 0-1.366.11-2.027a17.756 17.756 0 012.414-7.102 17.792 17.792 0 015.134-5.477M23.638 4.274a17.68 17.68 0 0110.153-3.172M20.923 19.453c.376-3.48-.485-7.887 7.725-12.293M5.032 30.512c.375-3.48-.463-7.887 7.725-12.293M21.497 38.597s-11.742-1.762-17.414 2.49c0 0 7.35 8.812 20.57 3.26 0 0-.309 8.284 16.046 10.398 0 0-6.29-12.557-12.272-14.363 0 0 8.829 1.938 17.966-7.094 0 0-11.918-2.49-20.107 3.194 0 0-1.589-11.367-9.6-12.425 0 0-1.766 8.856 4.811 14.54zM25.227 41.44s-.353 13.482-9.071 15.62M64.734 83.87a18.92 18.92 0 01-7.88-7.953 19.091 19.091 0 01-1.328-14.575 19.131 19.131 0 019.385-11.245M88.99 78.715a19.171 19.171 0 01-6.268 5.243M116.667 53.05c.199.396.398.793.574 1.19a19.046 19.046 0 01-2.207 19.254M105.632 43.774a18.97 18.97 0 0111.035 9.275M86.496 26.855a20.696 20.696 0 0113.655 6.805 20.62 20.62 0 015.26 14.3M76.321 28.618a10.603 10.603 0 012.693-1.036 21.069 21.069 0 017.482-.727"/><path d="M66.433 57.014a16.51 16.51 0 01-.97-2.203 20.566 20.566 0 01.926-17.007M66.39 37.892a20.64 20.64 0 018.828-8.812M71.819 54.966c-1.501-3.789-4.767-7.843 1.28-16.809M61.49 74.881c-1.501-3.79-4.745-7.865 1.28-16.81M82.744 74.33s-13 4.407-16.553 11.941c0 0 12.338 5.111 22.91-7.733 0 0 4.149 8.658 22.071 2.05 0 0-13.243-9.518-20.372-8.174 0 0 10.175-2.776 14.611-16.964 0 0-13.596 3.856-18.915 14.1 0 0-7.79-10.795-16.597-7.6.044.043 3.024 10.09 12.845 12.38zM88.13 75.212s6.908 14.055-.883 20.929"/></g><defs><clipPath id="axclip0"><path d="M0 0h120v97H0z"/></clipPath></defs></symbol><symbol viewBox="0 0 13 17" id="pause" xmlns="http://www.w3.org/2000/svg"><path d="M1.5 1.5v13.204M10.76 1.5v13.204"/></symbol><symbol viewBox="0 0 19 21" id="personal" xmlns="http://www.w3.org/2000/svg"><path d="M9.532 11.726a5.238 5.238 0 100-10.477 5.238 5.238 0 000 10.477zM1.615 20a8.072 8.072 0 1116.131 0"/></symbol><symbol viewBox="0 0 8 7" id="plus" xmlns="http://www.w3.org/2000/svg"><path d="M7.214 3.66l-2.548.002v2.506H3.492L3.49 3.662l-2.548.001V2.557l2.547-.001V.036h1.175l.001 2.52 2.548-.001V3.66z"/></symbol><symbol viewBox="0 0 81 98" id="recycled-cotton" xmlns="http://www.w3.org/2000/svg"><g opacity=".6" clip-path="url(#bbclip0)"><path d="M31.48 29.235s-.944-22.587 17.323-27.83c0 0-.378 14.366-4.32 19.147-1.406 1.72-6.649 6.795-8.725 6.795 0 0 2.537-12.583 7.57-15.918M25.628 21.979C14.555 13.275 1.3 18.58 1.3 18.58c3.65 11.242 16.946 17.135 25.377 13.674a41.825 41.825 0 004.802-3.02"/><path d="M32.255 29.109s12.06 9.71-.23 34.31c0 0-2.098 1.972-2.098-.86 0-.943 11.619-20.342.336-32.737l1.992-.713z"/><path d="M64.762 71.997L23.615 93.871s-6.292-16.106-8.767-21.286a97.169 97.169 0 00-11.45-16.778l41.147-21.874 20.217 38.064z"/><path d="M54.15 41.903l5.37-2.874 19.797 37.268L42.07 96.095l-3.083-5.726M26.656 85.504s-4.635-17.407-14.68-28.858M55.157 70.907s-13.632 6.187-27.452 14.429M70.886 75.29a263.372 263.372 0 00-25.334 13.338M26.593 56.835s.776 12.583 14.114 4.614"/></g><defs><clipPath id="bbclip0"><path d="M0 0h80.743v97.5H0z"/></clipPath></defs></symbol><symbol viewBox="0 0 109 101" id="reusable-packaging" xmlns="http://www.w3.org/2000/svg"><g opacity=".7" clip-path="url(#bcclip0)"><path d="M79.077 43.932a160.304 160.304 0 00-20.454-4.758c-5.469-.574-22.067-1.285-22.067-1.285l-14.82 7.465-14.33 7.902s-3.527 1.696-3.417 2.27a61.087 61.087 0 0019.633 8.203c6.918.766 27.755 1.531 27.755 1.531"/><path d="M1.774 61.46v29.477L50.912 101l31.966-19.688-.273-33.88-31.2 17.856M50.584 65.315v34.51"/><path d="M18.509 47.132s21.657.684 28 1.668c5.798.902 22.97 4.84 22.97 4.84v35.849M47.057 48.772s11.156-15.806 3.254-26.47c0 0 8.203-16.598-9.051-18.759 0 0-6.317 9.68 4.347 19.142"/><path d="M50.42 22.302C74.237 29.685 78.667 5.075 78.667 5.075S75.933 8.138 67.401 6.99c-7.82-1.012-10.774 11.567-10.774 11.567a24.91 24.91 0 0014.766-6.535"/></g><defs><clipPath id="bcclip0"><path d="M0 0h109v101H0z"/></clipPath></defs></symbol><symbol viewBox="0 0 21 21" id="search" xmlns="http://www.w3.org/2000/svg"><path d="M9.048 17.346a8.048 8.048 0 100-16.096 8.048 8.048 0 000 16.096zM14.738 14.988l4.739 4.75"/></symbol><symbol viewBox="0 0 20 20" id="shop" xmlns="http://www.w3.org/2000/svg"><path d="M0 0h20v20H0zM4.75 12.25h6.5M4.75 15.25h6.5M15.25 15.25v-5.5M11.25 15.25v-5.5M4.25 15.25v-5.5"/><path d="M17.188 9H2.881a1 1 0 01-.828-1.56l2.025-3A1 1 0 014.906 4h10.392a1 1 0 01.846.467l1.89 3A1 1 0 0117.188 9z"/></symbol><symbol viewBox="0 0 19 21" id="size-chart" xmlns="http://www.w3.org/2000/svg"><mask id="bfa"><rect x="8" width="21" height="8" rx="1" transform="rotate(90 8 0)"/></mask><rect x="8" width="21" height="8" rx="1" transform="rotate(90 8 0)" mask="url(#bfa)"/><path d="M1 4.25h3M1 8.25h3M1 12.25h3M1 16.25h3M15.75 4v13M13 7l2.5-3L18 7M18 14l-2.5 3-2.5-3"/></symbol><symbol viewBox="0 0 30 6" id="thumb" xmlns="http://www.w3.org/2000/svg"><path d="M0 3.269h30"/></symbol><symbol viewBox="0 0 24 25" id="twitter" xmlns="http://www.w3.org/2000/svg"><g clip-path="url(#bhclip0)"><path d="M19 .962H5a5 5 0 00-5 5v14a5 5 0 005 5h14a5 5 0 005-5v-14a5 5 0 00-5-5zm-.139 9.237c.209 4.617-3.234 9.765-9.33 9.765a9.286 9.286 0 01-5.032-1.475 6.605 6.605 0 004.86-1.36 3.285 3.285 0 01-3.066-2.28 3.3 3.3 0 001.482-.055c-1.579-.317-2.668-1.74-2.633-3.26.442.246.949.394 1.486.41a3.289 3.289 0 01-1.016-4.382 9.32 9.32 0 006.766 3.43 3.286 3.286 0 015.594-2.993 6.583 6.583 0 002.086-.796 3.296 3.296 0 01-1.443 1.816 6.578 6.578 0 001.885-.517 6.66 6.66 0 01-1.639 1.697z"/></g><defs><clipPath id="bhclip0"><path transform="translate(0 .962)" d="M0 0h24v24H0z"/></clipPath></defs></symbol><symbol viewBox="0 0 42 42" id="zoom-less" xmlns="http://www.w3.org/2000/svg"><circle cx="21" cy="21" r="20.5"/><path d="M14 20.5h14"/></symbol><symbol viewBox="0 0 42 42" id="zoom-more" xmlns="http://www.w3.org/2000/svg"><circle cx="21" cy="21" r="20.5"/><path d="M14 20.5h14M21.5 14v14"/></symbol></svg>